M48
INCH
T01C0.0191
T02C0.0276
T03C0.0315
T04C0.0394
T05C0.0433
T06C0.1063
%
T01
X+022232Y+011578
X+020599Y+012217
X+018896Y+011713
X+018346Y+011606
X+018334Y+010969
X+019081Y+010512
X+018496Y+009506
X+018009Y+009693
X+016589Y+010272
X+016072Y+010286
X+016208Y+009367
X+015232Y+009582
X+014114Y+009580
X+014229Y+010643
X+013513Y+011377
X+013853Y+012202
X+014398Y+011821
X+015484Y+011075
X+015772Y+011925
X+016390Y+011287
X+018249Y+012723
X+018167Y+013490
X+018998Y+014766
X+019514Y+015793
X+019258Y+016536
X+019183Y+017146
X+017313Y+017205
X+017342Y+016338
X+016663Y+016133
X+017250Y+015540
X+016437Y+016960
X+014671Y+016128
X+014235Y+017393
X+014311Y+018244
X+013480Y+017809
X+013388Y+016584
X+013028Y+015844
X+012445Y+014546
X+011919Y+014898
X+010103Y+015471
X+009672Y+016445
X+010299Y+013821
X+010360Y+013316
X+010368Y+012580
X+010375Y+011977
X+010364Y+011251
X+010385Y+010586
X+010368Y+009946
X+010350Y+009372
X+010399Y+008741
X+011639Y+007720
X+010847Y+006722
X+010147Y+005593
X+008741Y+005003
X+007499Y+005736
X+005951Y+007908
X+004986Y+010823
X+004998Y+013863
X+005219Y+016845
X+005240Y+018927
X+007221Y+022503
X+009047Y+022294
X+010403Y+020094
X+010362Y+019283
X+012028Y+017824
X+012961Y+019878
X+011888Y+021829
X+014466Y+021594
X+015274Y+020346
X+016375Y+021479
X+018847Y+019998
X+018132Y+019051
X+021142Y+020107
X+020440Y+021496
X+019413Y+022046
X+021492Y+022249
X+023485Y+021918
X+023443Y+019615
X+025290Y+017484
X+023282Y+016465
X+022433Y+016923
X+021904Y+015586
X+020690Y+014176
X+023495Y+013877
X+025305Y+012777
X+027964Y+014318
X+028949Y+008094
X+024837Y+007445
X+022848Y+008571
X+021515Y+009941
X+020669Y+009910
X+019382Y+007927
X+019282Y+007445
X+017164Y+006589
X+015841Y+006471
X+016519Y+004928
X+015692Y+004739
X+012652Y+005898
X+012236Y+009151
X+012206Y+009644
X+012208Y+010126
X+012207Y+010609
X+012217Y+011080
X+012216Y+011541
X+012211Y+012039
X+012229Y+012506
X+015588Y+014607
X+022113Y+005291
X+025814Y+022053
X+027451Y+021881
T02
X+015655Y+016448
T03
X+010913Y+016294
X+015528Y+017657
T04
X+008055Y+009839
X+008055Y+010854
X+008055Y+011838
X+008055Y+012823
X+008055Y+013807
X+008055Y+014791
X+008041Y+015800
X+008055Y+016792
X+008055Y+017783
X+008069Y+018762
T05
X+007331Y+024118
X+007331Y+025118
X+008331Y+025118
X+008331Y+024118
X+009331Y+024118
X+009331Y+025118
X+010331Y+025118
X+010331Y+024118
X+011331Y+024118
X+011331Y+025118
X+012331Y+025118
X+012331Y+024118
X+013331Y+024118
X+013331Y+025118
X+014331Y+025118
X+014331Y+024118
X+015331Y+024118
X+015331Y+025118
X+016331Y+025118
X+016331Y+024118
X+017331Y+024118
X+017331Y+025118
X+018331Y+025118
X+018331Y+024118
X+019331Y+024118
X+019331Y+025118
X+020331Y+025118
X+020331Y+024118
X+021331Y+024118
X+021331Y+025118
X+022331Y+025118
X+022331Y+024118
X+023331Y+024118
X+023331Y+025118
X+024331Y+025118
X+024331Y+024118
X+025331Y+024118
X+025331Y+025118
X+026331Y+025118
X+026331Y+024118
X+026719Y+020424
X+025719Y+020424
X+025710Y+018558
X+026710Y+018558
X+026744Y+016619
X+025744Y+016619
T06
X+005347Y+005399
X+005352Y+024595
X+028192Y+024599
X+028186Y+005353
T00
M30
