G04 DipTrace 3.3.1.3*
G04 TopPaste.gbr*
%MOIN*%
G04 #@! TF.FileFunction,Paste,Top*
G04 #@! TF.Part,Single*
%AMOUTLINE2*
4,1,4,
0.009843,-0.01378,
-0.009843,-0.01378,
-0.009843,0.01378,
0.009843,0.01378,
0.009843,-0.01378,
0*%
%AMOUTLINE5*
4,1,4,
-0.009843,0.01378,
0.009843,0.01378,
0.009843,-0.01378,
-0.009843,-0.01378,
-0.009843,0.01378,
0*%
%AMOUTLINE8*
4,1,4,
-0.01378,-0.009843,
-0.01378,0.009843,
0.01378,0.009843,
0.01378,-0.009843,
-0.01378,-0.009843,
0*%
%AMOUTLINE11*
4,1,4,
-0.021654,-0.025591,
-0.021654,0.025591,
0.021654,0.025591,
0.021654,-0.025591,
-0.021654,-0.025591,
0*%
%AMOUTLINE14*
4,1,4,
0.01378,0.009843,
0.01378,-0.009843,
-0.01378,-0.009843,
-0.01378,0.009843,
0.01378,0.009843,
0*%
%AMOUTLINE17*
4,1,4,
0.025591,-0.021654,
-0.025591,-0.021654,
-0.025591,0.021654,
0.025591,0.021654,
0.025591,-0.021654,
0*%
%AMOUTLINE20*
4,1,4,
-0.025591,0.021654,
0.025591,0.021654,
0.025591,-0.021654,
-0.025591,-0.021654,
-0.025591,0.021654,
0*%
%ADD47R,0.125984X0.047244*%
%ADD53R,0.019685X0.027559*%
%ADD57R,0.043307X0.051181*%
%ADD59R,0.047244X0.007874*%
%ADD61R,0.047244X0.003937*%
%ADD63R,0.027559X0.019685*%
%ADD65R,0.003937X0.055118*%
%ADD67R,0.055118X0.003937*%
%ADD77OUTLINE2*%
%ADD80OUTLINE5*%
%ADD83OUTLINE8*%
%ADD86OUTLINE11*%
%ADD89OUTLINE14*%
%ADD92OUTLINE17*%
%ADD95OUTLINE20*%
%FSLAX26Y26*%
G04*
G70*
G90*
G75*
G01*
G04 TopPaste*
%LPD*%
D67*
X1288291Y1236852D3*
Y1217167D3*
Y1197482D3*
Y1177797D3*
Y1158112D3*
Y1138427D3*
Y1118741D3*
Y1099056D3*
Y1079371D3*
Y1059686D3*
Y1040001D3*
Y1020316D3*
Y1000631D3*
Y980946D3*
Y961261D3*
Y941576D3*
D65*
X1365063Y864804D3*
X1384748D3*
X1404433D3*
X1424118D3*
X1443803D3*
X1463488D3*
X1483173D3*
X1502858D3*
X1522543D3*
X1542228D3*
X1561913D3*
X1581598D3*
X1601283D3*
X1620969D3*
X1640654D3*
X1660339D3*
D67*
X1737110Y941576D3*
Y961261D3*
Y980946D3*
Y1000631D3*
Y1020316D3*
Y1040001D3*
Y1059686D3*
Y1079371D3*
Y1099056D3*
Y1118741D3*
Y1138427D3*
Y1158112D3*
Y1177797D3*
Y1197482D3*
Y1217167D3*
Y1236852D3*
D65*
X1660339Y1313623D3*
X1640654D3*
X1620969D3*
X1601283D3*
X1581598D3*
X1561913D3*
X1542228D3*
X1522543D3*
X1502858D3*
X1483173D3*
X1463488D3*
X1443803D3*
X1424118D3*
X1404433D3*
X1384748D3*
X1365063D3*
D77*
X1502385Y1440948D3*
Y1492129D3*
D80*
X1549366Y784318D3*
Y733136D3*
D83*
X1408354Y760461D3*
X1459535D3*
D86*
X1405357Y697848D3*
X1480160D3*
D77*
X1763106Y1307161D3*
Y1358343D3*
X1722946Y1305239D3*
Y1356420D3*
D80*
X1622266Y783857D3*
Y732676D3*
D63*
X936944Y876933D3*
X988125D3*
D89*
X1992398Y1011731D3*
X1941217D3*
X1865323Y1550703D3*
X1814142D3*
D63*
X1322873Y463812D3*
X1374054D3*
D89*
X1992937Y970594D3*
X1941756D3*
D63*
X1328924Y535822D3*
X1380105D3*
X938682Y939093D3*
X989864D3*
X938442Y997001D3*
X989623D3*
X937667Y1064626D3*
X988848D3*
X937550Y1125845D3*
X988731D3*
X937239Y1194488D3*
X988420D3*
X933629Y1329362D3*
X984810D3*
X939743Y1267433D3*
X990924D3*
X1106844Y877017D3*
X1158025D3*
X1105301Y1199636D3*
X1156482D3*
D83*
X1102413Y1327845D3*
X1153594D3*
D63*
X1105131Y1127945D3*
X1156312D3*
X1106343Y937781D3*
X1157524D3*
X1105298Y1064190D3*
X1156479D3*
X1105262Y1267445D3*
X1156444D3*
X1105657Y996807D3*
X1156839D3*
D77*
X1500493Y1919738D3*
Y1970919D3*
D61*
X907622Y1796160D3*
Y1776475D3*
Y1756790D3*
Y1737105D3*
Y1717420D3*
X1080850D3*
Y1737105D3*
Y1756790D3*
Y1776475D3*
Y1796160D3*
X1826244Y1743945D3*
Y1718354D3*
Y1692764D3*
Y1667173D3*
Y1641583D3*
Y1615992D3*
X1999472D3*
Y1641583D3*
Y1667173D3*
Y1692764D3*
Y1718354D3*
Y1743945D3*
D59*
X1720541Y1961362D3*
Y1935772D3*
Y1910181D3*
Y1884591D3*
X1893769D3*
Y1910181D3*
Y1935772D3*
Y1961362D3*
D61*
X1200492Y2013487D3*
Y1993802D3*
Y1974117D3*
Y1954432D3*
Y1934747D3*
X1373720D3*
Y1954432D3*
Y1974117D3*
Y1993802D3*
Y2013487D3*
D80*
X1444241Y1969738D3*
Y1918556D3*
D92*
X2077740Y1603168D3*
Y1677971D3*
D57*
X1448404Y2035924D3*
X1523207D3*
D92*
X1984514Y1807180D3*
Y1881983D3*
D95*
X1125492Y2013488D3*
Y1938685D3*
D86*
X1759798Y1803067D3*
X1834601D3*
D92*
X2090850Y1770045D3*
Y1844848D3*
D77*
X1201371Y1683660D3*
Y1734841D3*
D83*
X2032610Y1494428D3*
X2083791D3*
D92*
X919743Y1881799D3*
Y1956602D3*
D80*
X1145119Y1733660D3*
Y1682479D3*
D95*
X1645539Y1963143D3*
Y1888340D3*
D57*
X1082621Y1852411D3*
X1157424D3*
D63*
X1245668Y806354D3*
X1296849D3*
D77*
X1451364Y1440665D3*
Y1491846D3*
D63*
X1346768Y1463677D3*
X1397949D3*
X1347067Y1396398D3*
X1398248D3*
X545223Y2112793D3*
X494042D3*
D83*
X495848Y2171437D3*
X547029D3*
D63*
X1610076Y1467126D3*
X1661257D3*
X1612613Y1429629D3*
X1663794D3*
X961034Y1440615D3*
X1012215D3*
D77*
X1142021Y1441091D3*
Y1492272D3*
X1078535Y1439419D3*
Y1490600D3*
D80*
X1282453Y1331125D3*
Y1279944D3*
D63*
X1122369Y1379740D3*
X1173550D3*
D53*
X1947953Y1479403D3*
Y1530584D3*
D89*
X1776370Y1487024D3*
X1725189D3*
D47*
X1821391Y765825D3*
X1823220Y479757D3*
M02*
