G04 DipTrace 3.3.1.3*
G04 TopSilk.gbr*
%MOIN*%
G04 #@! TF.FileFunction,Legend,Top*
G04 #@! TF.Part,Single*
%ADD10C,0.009843*%
%ADD20C,0.00431*%
%ADD21C,0.004291*%
%ADD22C,0.005236*%
%ADD23C,0.008228*%
%ADD24C,0.004461*%
%ADD25C,0.015713*%
%ADD68C,0.003088*%
%ADD69C,0.001544*%
%ADD70C,0.004632*%
%ADD71C,0.016983*%
%ADD72C,0.010807*%
%ADD73C,0.006176*%
%ADD74C,0.00772*%
%FSLAX26Y26*%
G04*
G70*
G90*
G75*
G01*
G04 TopSilk*
%LPD*%
X1335512Y1266403D2*
D10*
X1689890D1*
Y912025D1*
X1335512D1*
Y1266403D1*
G36*
D2*
Y1234875D1*
X1367039Y1266403D1*
X1335512D1*
G37*
D25*
X1288297Y1264432D3*
X1363997Y672277D2*
D10*
Y723419D1*
X950919Y1815848D2*
Y1697732D1*
X1037554D2*
Y1815848D1*
Y1697732D2*
X950919D1*
Y1815848D2*
X978480D1*
X1009992D2*
X1037554D1*
X978480D2*
G03X1009992Y1815848I15756J11D01*
G01*
X1865613Y1758714D2*
X1897102D1*
X1865613D2*
Y1601223D1*
X1928614Y1758714D2*
X1960103D1*
X1865613Y1601223D2*
X1960103D1*
Y1758714D1*
X1897102D2*
G03X1928614Y1758714I15756J7D01*
G01*
X1763838Y1982037D2*
Y1863916D1*
X1850472Y1982037D2*
Y1863916D1*
X1763838D2*
X1850472D1*
X1763838Y1982037D2*
X1791399D1*
X1822911D2*
X1850472D1*
X1791399D2*
G03X1822911Y1982037I15756J10D01*
G01*
X1243789Y2033175D2*
Y1915058D1*
X1330424D2*
Y2033175D1*
Y1915058D2*
X1243789D1*
Y2033175D2*
X1271350D1*
X1302862D2*
X1330424D1*
X1271350D2*
G03X1302862Y2033175I15756J11D01*
G01*
X2103311Y1561808D2*
X2052169D1*
X1407045Y2010353D2*
Y2061495D1*
X2010085Y1765820D2*
X1958944D1*
X1099921Y2054848D2*
X1151063D1*
X1718438Y1777496D2*
Y1828638D1*
X2116421Y1728685D2*
X2065280D1*
X945314Y1840440D2*
X894172D1*
X1619969Y2004503D2*
X1671110D1*
X1041261Y1826840D2*
Y1877982D1*
X747940Y1920810D2*
D23*
X862708D1*
Y928736D1*
X747940D1*
Y1920810D1*
X683091Y2561770D2*
D10*
X2683091D1*
Y2361770D1*
X683091D1*
Y2561770D1*
G36*
X1751456Y739676D2*
X1896552D1*
Y664409D1*
X1751456D1*
Y739676D1*
G37*
X1749723Y799883D2*
D23*
X1895304D1*
Y444681D1*
X1749723D1*
Y799883D1*
X2721933Y1992364D2*
D10*
X2521909D1*
Y2092369D1*
X2721933D1*
Y1992364D1*
X2721001Y1805764D2*
X2520978D1*
Y1905769D1*
X2721001D1*
Y1805764D1*
X2724445Y1611891D2*
X2524421D1*
Y1711896D1*
X2724445D1*
Y1611891D1*
X1126879Y1755433D2*
D20*
X1165097D1*
Y1660285D1*
X1126879D1*
Y1755433D1*
X1184312Y1756205D2*
X1220121D1*
Y1660189D1*
X1184312D1*
Y1756205D1*
X883373Y1989453D2*
X955105D1*
Y1841226D1*
X883373D1*
Y1989453D1*
X1051370Y1889909D2*
X1188871D1*
Y1814909D1*
X1051370D1*
Y1889909D1*
X1609039Y1993091D2*
X1683039D1*
Y1853241D1*
X1609039D1*
Y1993091D1*
X1944459Y1915978D2*
X2022748D1*
Y1766025D1*
X1944459D1*
Y1915978D1*
X1409727Y2074592D2*
X1553476D1*
Y1999592D1*
X1409727D1*
Y2074592D1*
X2043618Y1711206D2*
X2113839D1*
Y1555588D1*
X2043618D1*
Y1711206D1*
X1425774Y1994738D2*
X1462993D1*
Y1891958D1*
X1425774D1*
Y1994738D1*
X1481744Y1993114D2*
X1519241D1*
Y1893113D1*
X1481744D1*
Y1993114D1*
X1087992Y2044738D2*
X1162993D1*
Y1907238D1*
X1087992D1*
Y2044738D1*
X1722101Y1840568D2*
X1865850D1*
Y1765567D1*
X1722101D1*
Y1840568D1*
X2053197Y1881748D2*
X2128197D1*
Y1731846D1*
X2053197D1*
Y1881748D1*
X2010000Y1511690D2*
X2109823D1*
Y1475974D1*
X2010000D1*
Y1511690D1*
X1305667Y554417D2*
X1402636D1*
Y517472D1*
X1305667D1*
Y554417D1*
X1425402Y1603097D2*
X1539976D1*
Y1374231D1*
X1425402D1*
Y1603097D1*
X1790211Y1569598D2*
X1891600D1*
Y1532575D1*
X1790211D1*
Y1569598D1*
X1917457Y1030898D2*
X2015265D1*
Y990079D1*
X1917457D1*
Y1030898D1*
X1695857Y1426378D2*
X1895885D1*
Y1278614D1*
X1695857D1*
Y1426378D1*
X1602159Y809404D2*
X1640908D1*
Y708936D1*
X1602159D1*
Y809404D1*
X1530615Y809316D2*
X1568117D1*
Y709316D1*
X1530615D1*
Y809316D1*
X1361609Y734169D2*
X1511608D1*
Y662709D1*
X1361609D1*
Y734169D1*
X1386411Y780311D2*
X1480161D1*
Y742811D1*
X1386411D1*
Y780311D1*
X1917587Y987832D2*
X2015314D1*
Y951953D1*
X1917587D1*
Y987832D1*
X1297873Y482563D2*
D21*
X1397873D1*
Y445062D1*
X1297873D1*
Y482563D1*
X1315043Y1570453D2*
X1422377D1*
Y1358980D1*
X1315043D1*
Y1570453D1*
X1533093Y1687016D2*
X1597413D1*
Y1611316D1*
X1533093D1*
Y1687016D1*
X1574991Y1569543D2*
X1690987D1*
Y1388567D1*
X1574991D1*
Y1569543D1*
X991490Y1659816D2*
X1120795D1*
Y1594798D1*
X991490D1*
Y1659816D1*
X1520378Y1816921D2*
X1657879D1*
Y1735672D1*
X1520378D1*
Y1816921D1*
X929163Y1585235D2*
D22*
X1169228D1*
Y1405151D1*
X929163D1*
Y1585235D1*
X1479172Y1515707D2*
X1522039D1*
Y1416801D1*
X1479172D1*
Y1515707D1*
X1431245Y1515938D2*
X1472778D1*
Y1418396D1*
X1431245D1*
Y1515938D1*
X1263752Y1353769D2*
X1301937D1*
Y1256929D1*
X1263752D1*
Y1353769D1*
X1099118Y1397472D2*
D21*
X1196146D1*
Y1361781D1*
X1099118D1*
Y1397472D1*
X1324379Y1481963D2*
D22*
X1418394D1*
Y1444858D1*
X1324379D1*
Y1481963D1*
X1324230Y1414349D2*
X1418243D1*
Y1378955D1*
X1324230D1*
Y1414349D1*
X1587450Y1485325D2*
X1683720D1*
Y1449795D1*
X1587450D1*
Y1485325D1*
X1587386Y1445890D2*
X1683720D1*
Y1409984D1*
X1587386D1*
Y1445890D1*
X1704936Y1381164D2*
X1739727D1*
Y1283787D1*
X1704936D1*
Y1381164D1*
X1745402Y1380253D2*
X1781589D1*
Y1283741D1*
X1745402D1*
Y1380253D1*
X1219029Y827318D2*
X1320045D1*
Y785000D1*
X1219029D1*
Y827318D1*
X937247Y1458870D2*
X1033560D1*
Y1421745D1*
X937247D1*
Y1458870D1*
X1060193Y1515104D2*
X1098378D1*
Y1414248D1*
X1060193D1*
Y1515104D1*
X1123895Y1514425D2*
X1160434D1*
Y1415749D1*
X1123895D1*
Y1514425D1*
X472651Y2130614D2*
X570689D1*
Y2092126D1*
X472651D1*
Y2130614D1*
X472891Y2193134D2*
X570929D1*
Y2153421D1*
X472891D1*
Y2193134D1*
X1065066Y1348441D2*
D23*
X1187020D1*
Y840726D1*
X1065066D1*
Y1348441D1*
X904437Y1379400D2*
X1028131D1*
Y840297D1*
X904437D1*
Y1379400D1*
X1891302Y1072615D2*
D21*
X2103144D1*
Y914822D1*
X1891302D1*
Y1072615D1*
X1928014Y1552327D2*
X1968077D1*
Y1457140D1*
X1928014D1*
Y1552327D1*
X1700563Y1505732D2*
X1801723D1*
Y1467839D1*
X1700563D1*
Y1505732D1*
X1411680Y485992D2*
D23*
Y441092D1*
X2489495Y2138545D2*
D24*
X2745622D1*
Y1588547D1*
X2489495D1*
Y2138545D1*
X1463891Y1036847D2*
D68*
X1443795Y1029175D1*
X1463891Y1021526D1*
X1457192Y1024400D2*
Y1033973D1*
X1443795Y1043022D2*
X1463891D1*
Y1049721D1*
X1462918Y1052595D1*
X1461017Y1054518D1*
X1459093Y1055469D1*
X1456242Y1056420D1*
X1451444D1*
X1448570Y1055469D1*
X1446669Y1054519D1*
X1444745Y1052595D1*
X1443795Y1049721D1*
Y1043022D1*
X1446669Y1075993D2*
X1444745Y1074092D1*
X1443795Y1071218D1*
Y1067393D1*
X1444745Y1064519D1*
X1446669Y1062595D1*
X1448570D1*
X1450493Y1063568D1*
X1451444Y1064519D1*
X1452395Y1066420D1*
X1454318Y1072168D1*
X1455269Y1074092D1*
X1456241Y1075042D1*
X1458143Y1075993D1*
X1461017D1*
X1462918Y1074092D1*
X1463891Y1071218D1*
Y1067393D1*
X1462918Y1064519D1*
X1461017Y1062595D1*
X1447642Y1082169D2*
X1446669Y1084092D1*
X1443817Y1086966D1*
X1463891D1*
X1448592Y1094114D2*
X1447642D1*
X1445718Y1095065D1*
X1444768Y1096016D1*
X1443817Y1097939D1*
Y1101764D1*
X1444768Y1103665D1*
X1445718Y1104616D1*
X1447642Y1105588D1*
X1449543D1*
X1451466Y1104616D1*
X1454318Y1102714D1*
X1463891Y1093142D1*
Y1106539D1*
X1450493Y1125161D2*
X1453367Y1124189D1*
X1455291Y1122287D1*
X1456241Y1119413D1*
Y1118463D1*
X1455291Y1115589D1*
X1453367Y1113687D1*
X1450493Y1112715D1*
X1449543D1*
X1446669Y1113687D1*
X1444768Y1115589D1*
X1443817Y1118463D1*
Y1119413D1*
X1444768Y1122287D1*
X1446669Y1124189D1*
X1450493Y1125161D1*
X1455291D1*
X1460066Y1124189D1*
X1462940Y1122287D1*
X1463891Y1119413D1*
Y1117512D1*
X1462940Y1114638D1*
X1461017Y1113687D1*
X1450493Y1143784D2*
X1453367Y1142811D1*
X1455291Y1140910D1*
X1456241Y1138036D1*
Y1137085D1*
X1455291Y1134211D1*
X1453367Y1132310D1*
X1450493Y1131337D1*
X1449543D1*
X1446669Y1132310D1*
X1444768Y1134211D1*
X1443817Y1137085D1*
Y1138036D1*
X1444768Y1140910D1*
X1446669Y1142811D1*
X1450493Y1143784D1*
X1455291D1*
X1460066Y1142811D1*
X1462940Y1140910D1*
X1463891Y1138036D1*
Y1136134D1*
X1462940Y1133260D1*
X1461017Y1132310D1*
X1475886Y1399716D2*
X1474935Y1401617D1*
X1473012Y1403541D1*
X1471111Y1404491D1*
X1467286D1*
X1465363Y1403541D1*
X1463461Y1401617D1*
X1462489Y1399716D1*
X1461538Y1396842D1*
Y1392045D1*
X1462489Y1389193D1*
X1463461Y1387269D1*
X1465363Y1385368D1*
X1467286Y1384395D1*
X1471111D1*
X1473012Y1385368D1*
X1474935Y1387269D1*
X1475886Y1389193D1*
X1483034Y1399694D2*
Y1400645D1*
X1483985Y1402568D1*
X1484936Y1403519D1*
X1486859Y1404469D1*
X1490684D1*
X1492585Y1403519D1*
X1493536Y1402568D1*
X1494508Y1400645D1*
Y1398743D1*
X1493536Y1396820D1*
X1491634Y1393968D1*
X1482062Y1384395D1*
X1495459D1*
X1514081Y1397793D2*
X1513109Y1394919D1*
X1511207Y1392995D1*
X1508333Y1392045D1*
X1507383D1*
X1504509Y1392995D1*
X1502607Y1394919D1*
X1501635Y1397793D1*
Y1398743D1*
X1502607Y1401617D1*
X1504509Y1403519D1*
X1507383Y1404469D1*
X1508333D1*
X1511207Y1403519D1*
X1513109Y1401617D1*
X1514081Y1397793D1*
Y1392995D1*
X1513109Y1388220D1*
X1511207Y1385346D1*
X1508333Y1384395D1*
X1506432D1*
X1503558Y1385346D1*
X1502607Y1387269D1*
X1503720Y753076D2*
X1501818Y752126D1*
X1499895Y750202D1*
X1498944Y748301D1*
Y744476D1*
X1499895Y742553D1*
X1501818Y740652D1*
X1503720Y739679D1*
X1506594Y738728D1*
X1511391D1*
X1514243Y739679D1*
X1516166Y740652D1*
X1518068Y742553D1*
X1519040Y744476D1*
Y748301D1*
X1518068Y750202D1*
X1516166Y752126D1*
X1514243Y753076D1*
X1502791Y759252D2*
X1501818Y761175D1*
X1498967Y764049D1*
X1519040D1*
X1501818Y781699D2*
X1499917Y780748D1*
X1498967Y777874D1*
Y775973D1*
X1499917Y773099D1*
X1502791Y771176D1*
X1507566Y770225D1*
X1512342D1*
X1516166Y771176D1*
X1518090Y773099D1*
X1519040Y775973D1*
Y776924D1*
X1518090Y779776D1*
X1516166Y781699D1*
X1513292Y782650D1*
X1512342D1*
X1509468Y781699D1*
X1507566Y779776D1*
X1506616Y776924D1*
Y775973D1*
X1507566Y773099D1*
X1509468Y771176D1*
X1512342Y770225D1*
X1341358Y776917D2*
X1340407Y778818D1*
X1338484Y780741D1*
X1336582Y781692D1*
X1332758D1*
X1330834Y780741D1*
X1328933Y778818D1*
X1327960Y776917D1*
X1327010Y774043D1*
Y769245D1*
X1327960Y766394D1*
X1328933Y764470D1*
X1330834Y762569D1*
X1332758Y761596D1*
X1336582D1*
X1338484Y762569D1*
X1340407Y764470D1*
X1341358Y766394D1*
X1347533Y777845D2*
X1349457Y778818D1*
X1352331Y781670D1*
Y761596D1*
X1362331D2*
X1371904Y781670D1*
X1358506D1*
X1340806Y681714D2*
X1338905Y680763D1*
X1336982Y678840D1*
X1336031Y676939D1*
Y673114D1*
X1336982Y671191D1*
X1338905Y669289D1*
X1340806Y668317D1*
X1343680Y667366D1*
X1348478D1*
X1351330Y668317D1*
X1353253Y669289D1*
X1355154Y671191D1*
X1356127Y673114D1*
Y676939D1*
X1355154Y678840D1*
X1353253Y680763D1*
X1351330Y681714D1*
X1339878Y687890D2*
X1338905Y689813D1*
X1336053Y692687D1*
X1356127D1*
X1336053Y703638D2*
X1337004Y700786D1*
X1338905Y699813D1*
X1340828D1*
X1342730Y700786D1*
X1343702Y702687D1*
X1344653Y706512D1*
X1345604Y709386D1*
X1347527Y711287D1*
X1349428Y712238D1*
X1352302D1*
X1354204Y711287D1*
X1355176Y710337D1*
X1356127Y707463D1*
Y703638D1*
X1355176Y700786D1*
X1354204Y699813D1*
X1352302Y698863D1*
X1349428D1*
X1347527Y699813D1*
X1345604Y701737D1*
X1344653Y704589D1*
X1343702Y708413D1*
X1342730Y710337D1*
X1340828Y711287D1*
X1338905D1*
X1337004Y710337D1*
X1336053Y707463D1*
Y703638D1*
X1779648Y1404918D2*
X1778698Y1406819D1*
X1776774Y1408743D1*
X1774873Y1409693D1*
X1771048D1*
X1769125Y1408743D1*
X1767224Y1406819D1*
X1766251Y1404918D1*
X1765300Y1402044D1*
Y1397247D1*
X1766251Y1394395D1*
X1767224Y1392471D1*
X1769125Y1390570D1*
X1771048Y1389597D1*
X1774873D1*
X1776774Y1390570D1*
X1778698Y1392471D1*
X1779648Y1394395D1*
X1787747Y1409671D2*
X1798248D1*
X1792523Y1402022D1*
X1795397D1*
X1797298Y1401071D1*
X1798248Y1400121D1*
X1799221Y1397247D1*
Y1395345D1*
X1798248Y1392471D1*
X1796347Y1390548D1*
X1793473Y1389597D1*
X1790599D1*
X1787747Y1390548D1*
X1786797Y1391521D1*
X1785824Y1393422D1*
X1816871Y1409671D2*
X1807320D1*
X1806370Y1401071D1*
X1807320Y1402022D1*
X1810194Y1402995D1*
X1813046D1*
X1815920Y1402022D1*
X1817844Y1400121D1*
X1818794Y1397247D1*
Y1395345D1*
X1817844Y1392471D1*
X1815920Y1390548D1*
X1813046Y1389597D1*
X1810194D1*
X1807320Y1390548D1*
X1806370Y1391521D1*
X1805397Y1393422D1*
X1717199Y1405077D2*
X1716248Y1406978D1*
X1714325Y1408902D1*
X1712424Y1409852D1*
X1708599D1*
X1706676Y1408902D1*
X1704775Y1406978D1*
X1703802Y1405077D1*
X1702851Y1402203D1*
Y1397406D1*
X1703802Y1394554D1*
X1704775Y1392630D1*
X1706676Y1390729D1*
X1708599Y1389756D1*
X1712424D1*
X1714325Y1390729D1*
X1716248Y1392630D1*
X1717199Y1394554D1*
X1725298Y1409830D2*
X1735799D1*
X1730073Y1402181D1*
X1732948D1*
X1734849Y1401230D1*
X1735799Y1400280D1*
X1736772Y1397406D1*
Y1395504D1*
X1735799Y1392630D1*
X1733898Y1390707D1*
X1731024Y1389756D1*
X1728150D1*
X1725298Y1390707D1*
X1724348Y1391680D1*
X1723375Y1393581D1*
X1752521Y1389756D2*
Y1409830D1*
X1742948Y1396455D1*
X1757296D1*
X1581350Y751980D2*
X1579448Y751029D1*
X1577525Y749106D1*
X1576574Y747204D1*
Y743380D1*
X1577525Y741456D1*
X1579448Y739555D1*
X1581350Y738582D1*
X1584224Y737632D1*
X1589021D1*
X1591873Y738582D1*
X1593796Y739555D1*
X1595698Y741456D1*
X1596670Y743380D1*
Y747204D1*
X1595698Y749105D1*
X1593796Y751029D1*
X1591873Y751979D1*
X1580421Y758155D2*
X1579448Y760079D1*
X1576596Y762953D1*
X1596670D1*
Y778701D2*
X1576596D1*
X1589972Y769128D1*
Y783476D1*
X940931Y910119D2*
X949531D1*
X952405Y911092D1*
X953378Y912043D1*
X954328Y913944D1*
Y915867D1*
X953378Y917769D1*
X952405Y918741D1*
X949531Y919692D1*
X940931D1*
Y899596D1*
X947630Y910119D2*
X954328Y899596D1*
X960504Y915845D2*
X962428Y916818D1*
X965302Y919670D1*
Y899596D1*
X972450Y914895D2*
Y915845D1*
X973401Y917769D1*
X974351Y918719D1*
X976275Y919670D1*
X980099D1*
X982001Y918719D1*
X982951Y917769D1*
X983924Y915845D1*
Y913944D1*
X982951Y912021D1*
X981050Y909169D1*
X971477Y899596D1*
X984875D1*
X2041814Y1011346D2*
X2050414D1*
X2053288Y1012319D1*
X2054261Y1013270D1*
X2055212Y1015171D1*
Y1017095D1*
X2054261Y1018996D1*
X2053288Y1019969D1*
X2050414Y1020919D1*
X2041814D1*
Y1000823D1*
X2048513Y1011346D2*
X2055212Y1000823D1*
X2073834Y1014220D2*
X2072861Y1011346D1*
X2070960Y1009423D1*
X2068086Y1008472D1*
X2067135D1*
X2064261Y1009423D1*
X2062360Y1011346D1*
X2061387Y1014220D1*
Y1015171D1*
X2062360Y1018045D1*
X2064261Y1019946D1*
X2067135Y1020897D1*
X2068086D1*
X2070960Y1019946D1*
X2072861Y1018045D1*
X2073834Y1014220D1*
Y1009423D1*
X2072861Y1004648D1*
X2070960Y1001774D1*
X2068086Y1000823D1*
X2066185D1*
X2063311Y1001774D1*
X2062360Y1003697D1*
X1794367Y1589928D2*
X1802967D1*
X1805841Y1590901D1*
X1806814Y1591851D1*
X1807765Y1593752D1*
Y1595676D1*
X1806814Y1597577D1*
X1805841Y1598550D1*
X1802967Y1599501D1*
X1794367D1*
Y1579405D1*
X1801066Y1589928D2*
X1807765Y1579405D1*
X1814913Y1594703D2*
Y1595654D1*
X1815864Y1597577D1*
X1816814Y1598528D1*
X1818738Y1599478D1*
X1822562D1*
X1824464Y1598528D1*
X1825414Y1597577D1*
X1826387Y1595654D1*
Y1593752D1*
X1825414Y1591829D1*
X1823513Y1588977D1*
X1813940Y1579405D1*
X1827338D1*
X1834486Y1594703D2*
Y1595654D1*
X1835437Y1597577D1*
X1836387Y1598528D1*
X1838311Y1599478D1*
X1842136D1*
X1844037Y1598528D1*
X1844987Y1597577D1*
X1845960Y1595654D1*
Y1593752D1*
X1844987Y1591829D1*
X1843086Y1588977D1*
X1833513Y1579405D1*
X1846911D1*
X1425864Y476662D2*
Y456566D1*
X1432563D1*
X1435437Y457539D1*
X1437360Y459440D1*
X1438311Y461363D1*
X1439261Y464215D1*
Y469013D1*
X1438311Y471887D1*
X1437360Y473788D1*
X1435437Y475711D1*
X1432563Y476662D1*
X1425864D1*
X1446410Y471865D2*
Y472815D1*
X1447360Y474739D1*
X1448311Y475689D1*
X1450234Y476640D1*
X1454059D1*
X1455960Y475689D1*
X1456911Y474739D1*
X1457884Y472815D1*
Y470914D1*
X1456911Y468991D1*
X1455010Y466139D1*
X1445437Y456566D1*
X1458834D1*
X2041426Y971206D2*
X2050026D1*
X2052900Y972179D1*
X2053873Y973129D1*
X2054823Y975031D1*
Y976954D1*
X2053873Y978855D1*
X2052900Y979828D1*
X2050026Y980779D1*
X2041426D1*
Y960683D1*
X2048125Y971206D2*
X2054823Y960683D1*
X2060999Y976932D2*
X2062922Y977905D1*
X2065796Y980757D1*
Y960683D1*
X2077720Y980757D2*
X2074846Y979806D1*
X2072923Y976932D1*
X2071972Y972157D1*
Y969283D1*
X2072923Y964507D1*
X2074846Y961633D1*
X2077720Y960683D1*
X2079621D1*
X2082495Y961633D1*
X2084397Y964507D1*
X2085369Y969283D1*
Y972157D1*
X2084397Y976932D1*
X2082495Y979806D1*
X2079621Y980757D1*
X2077720D1*
X2084397Y976932D2*
X2072923Y964507D1*
X1425357Y540927D2*
X1433957D1*
X1436831Y541899D1*
X1437804Y542850D1*
X1438755Y544751D1*
Y546675D1*
X1437804Y548576D1*
X1436831Y549549D1*
X1433957Y550499D1*
X1425357D1*
Y530403D1*
X1432056Y540927D2*
X1438755Y530403D1*
X1448755D2*
X1458328Y550477D1*
X1444930D1*
X943862Y968631D2*
X952462D1*
X955336Y969604D1*
X956308Y970555D1*
X957259Y972456D1*
Y974379D1*
X956308Y976281D1*
X955336Y977253D1*
X952462Y978204D1*
X943862D1*
Y958108D1*
X950560Y968631D2*
X957259Y958108D1*
X963435Y974357D2*
X965358Y975330D1*
X968232Y978182D1*
Y958108D1*
X976331Y978182D2*
X986832D1*
X981106Y970533D1*
X983980D1*
X985882Y969582D1*
X986832Y968631D1*
X987805Y965757D1*
Y963856D1*
X986832Y960982D1*
X984931Y959059D1*
X982057Y958108D1*
X979183D1*
X976331Y959059D1*
X975380Y960031D1*
X974408Y961933D1*
X942275Y1030390D2*
X950875D1*
X953749Y1031363D1*
X954721Y1032313D1*
X955672Y1034214D1*
Y1036138D1*
X954721Y1038039D1*
X953749Y1039012D1*
X950875Y1039962D1*
X942275D1*
Y1019866D1*
X948973Y1030390D2*
X955672Y1019866D1*
X961848Y1036116D2*
X963771Y1037088D1*
X966645Y1039940D1*
Y1019866D1*
X982394D2*
Y1039940D1*
X972821Y1026565D1*
X987169D1*
X944759Y1095311D2*
X953359D1*
X956233Y1096284D1*
X957206Y1097234D1*
X958157Y1099136D1*
Y1101059D1*
X957206Y1102960D1*
X956233Y1103933D1*
X953359Y1104884D1*
X944759D1*
Y1084788D1*
X951458Y1095311D2*
X958157Y1084788D1*
X964332Y1101037D2*
X966256Y1102010D1*
X969130Y1104862D1*
Y1084788D1*
X986779Y1104862D2*
X977229D1*
X976278Y1096262D1*
X977229Y1097212D1*
X980103Y1098185D1*
X982955D1*
X985829Y1097212D1*
X987752Y1095311D1*
X988703Y1092437D1*
Y1090536D1*
X987752Y1087662D1*
X985829Y1085738D1*
X982955Y1084788D1*
X980103D1*
X977229Y1085738D1*
X976278Y1086711D1*
X975305Y1088612D1*
X941608Y1157067D2*
X950208D1*
X953082Y1158040D1*
X954055Y1158990D1*
X955005Y1160892D1*
Y1162815D1*
X954055Y1164716D1*
X953082Y1165689D1*
X950208Y1166640D1*
X941608D1*
Y1146544D1*
X948306Y1157067D2*
X955005Y1146544D1*
X961181Y1162793D2*
X963104Y1163766D1*
X965978Y1166618D1*
Y1146544D1*
X983628Y1163766D2*
X982677Y1165667D1*
X979803Y1166618D1*
X977902D1*
X975028Y1165667D1*
X973105Y1162793D1*
X972154Y1158018D1*
Y1153242D1*
X973105Y1149418D1*
X975028Y1147494D1*
X977902Y1146544D1*
X978853D1*
X981705Y1147494D1*
X983628Y1149418D1*
X984579Y1152292D1*
Y1153242D1*
X983628Y1156116D1*
X981705Y1158018D1*
X978853Y1158968D1*
X977902D1*
X975028Y1158018D1*
X973105Y1156116D1*
X972154Y1153242D1*
X943783Y1224676D2*
X952383D1*
X955257Y1225649D1*
X956230Y1226599D1*
X957180Y1228501D1*
Y1230424D1*
X956230Y1232325D1*
X955257Y1233298D1*
X952383Y1234249D1*
X943783D1*
Y1214153D1*
X950482Y1224676D2*
X957180Y1214153D1*
X963356Y1230402D2*
X965279Y1231375D1*
X968153Y1234226D1*
Y1214153D1*
X978154D2*
X987726Y1234226D1*
X974329D1*
X946670Y1360167D2*
X955270D1*
X958144Y1361139D1*
X959117Y1362090D1*
X960068Y1363991D1*
Y1365915D1*
X959117Y1367816D1*
X958144Y1368789D1*
X955270Y1369739D1*
X946670D1*
Y1349643D1*
X953369Y1360167D2*
X960068Y1349643D1*
X966243Y1365893D2*
X968167Y1366865D1*
X971041Y1369717D1*
Y1349643D1*
X989663Y1363041D2*
X988690Y1360167D1*
X986789Y1358243D1*
X983915Y1357293D1*
X982964D1*
X980090Y1358243D1*
X978189Y1360167D1*
X977216Y1363041D1*
Y1363991D1*
X978189Y1366865D1*
X980090Y1368767D1*
X982964Y1369717D1*
X983915D1*
X986789Y1368767D1*
X988690Y1366865D1*
X989663Y1363041D1*
Y1358243D1*
X988690Y1353468D1*
X986789Y1350594D1*
X983915Y1349643D1*
X982014D1*
X979140Y1350594D1*
X978189Y1352517D1*
X946722Y1301472D2*
X955322D1*
X958196Y1302445D1*
X959168Y1303396D1*
X960119Y1305297D1*
Y1307220D1*
X959168Y1309122D1*
X958196Y1310095D1*
X955322Y1311045D1*
X946722D1*
Y1290949D1*
X953420Y1301472D2*
X960119Y1290949D1*
X966295Y1307198D2*
X968218Y1308171D1*
X971092Y1311023D1*
Y1290949D1*
X982043Y1311023D2*
X979191Y1310072D1*
X978219Y1308171D1*
Y1306248D1*
X979191Y1304346D1*
X981093Y1303374D1*
X984917Y1302423D1*
X987791Y1301472D1*
X989692Y1299549D1*
X990643Y1297648D1*
Y1294774D1*
X989692Y1292873D1*
X988742Y1291900D1*
X985868Y1290949D1*
X982043D1*
X979191Y1291900D1*
X978219Y1292873D1*
X977268Y1294774D1*
Y1297648D1*
X978219Y1299549D1*
X980142Y1301472D1*
X982994Y1302423D1*
X986818Y1303374D1*
X988742Y1304346D1*
X989692Y1306248D1*
Y1308171D1*
X988742Y1310072D1*
X985868Y1311023D1*
X982043D1*
X1099059Y911611D2*
X1098108Y913512D1*
X1096185Y915436D1*
X1094283Y916386D1*
X1090459D1*
X1088535Y915436D1*
X1086634Y913512D1*
X1085661Y911611D1*
X1084711Y908737D1*
Y903940D1*
X1085661Y901088D1*
X1086634Y899164D1*
X1088535Y897263D1*
X1090459Y896290D1*
X1094283D1*
X1096185Y897263D1*
X1098108Y899164D1*
X1099059Y901088D1*
X1105234Y912540D2*
X1107158Y913512D1*
X1110032Y916364D1*
Y896290D1*
X1128654Y909688D2*
X1127681Y906814D1*
X1125780Y904890D1*
X1122906Y903940D1*
X1121955D1*
X1119081Y904890D1*
X1117180Y906814D1*
X1116207Y909688D1*
Y910638D1*
X1117180Y913512D1*
X1119081Y915414D1*
X1121955Y916364D1*
X1122906D1*
X1125780Y915414D1*
X1127681Y913512D1*
X1128654Y909688D1*
Y904890D1*
X1127681Y900115D1*
X1125780Y897241D1*
X1122906Y896290D1*
X1121005D1*
X1118131Y897241D1*
X1117180Y899164D1*
X1093147Y1233333D2*
X1092196Y1235234D1*
X1090273Y1237157D1*
X1088371Y1238108D1*
X1084547D1*
X1082623Y1237157D1*
X1080722Y1235234D1*
X1079749Y1233333D1*
X1078799Y1230459D1*
Y1225661D1*
X1079749Y1222810D1*
X1080722Y1220886D1*
X1082623Y1218985D1*
X1084547Y1218012D1*
X1088371D1*
X1090273Y1218985D1*
X1092196Y1220886D1*
X1093147Y1222810D1*
X1100295Y1233311D2*
Y1234261D1*
X1101246Y1236185D1*
X1102196Y1237135D1*
X1104120Y1238086D1*
X1107944D1*
X1109846Y1237135D1*
X1110796Y1236185D1*
X1111769Y1234261D1*
Y1232360D1*
X1110796Y1230437D1*
X1108895Y1227585D1*
X1099322Y1218012D1*
X1112720D1*
X1128468D2*
Y1238086D1*
X1118895Y1224711D1*
X1133243D1*
X1205284Y1308263D2*
X1203383Y1307313D1*
X1201459Y1305389D1*
X1200509Y1303488D1*
Y1299663D1*
X1201459Y1297740D1*
X1203383Y1295839D1*
X1205284Y1294866D1*
X1208158Y1293915D1*
X1212955D1*
X1215807Y1294866D1*
X1217731Y1295839D1*
X1219632Y1297740D1*
X1220605Y1299663D1*
Y1303488D1*
X1219632Y1305389D1*
X1217731Y1307313D1*
X1215807Y1308263D1*
X1205306Y1315412D2*
X1204355D1*
X1202432Y1316362D1*
X1201481Y1317313D1*
X1200531Y1319236D1*
Y1323061D1*
X1201481Y1324962D1*
X1202432Y1325913D1*
X1204355Y1326886D1*
X1206257D1*
X1208180Y1325913D1*
X1211032Y1324012D1*
X1220605Y1314439D1*
Y1327836D1*
X1203383Y1345486D2*
X1201481Y1344535D1*
X1200531Y1341661D1*
Y1339760D1*
X1201481Y1336886D1*
X1204355Y1334963D1*
X1209131Y1334012D1*
X1213906D1*
X1217731Y1334963D1*
X1219654Y1336886D1*
X1220605Y1339760D1*
Y1340711D1*
X1219654Y1343562D1*
X1217731Y1345486D1*
X1214857Y1346437D1*
X1213906D1*
X1211032Y1345486D1*
X1209131Y1343563D1*
X1208180Y1340711D1*
Y1339760D1*
X1209131Y1336886D1*
X1211032Y1334963D1*
X1213906Y1334012D1*
X1093720Y1165374D2*
X1092770Y1167275D1*
X1090846Y1169198D1*
X1088945Y1170149D1*
X1085120D1*
X1083197Y1169198D1*
X1081296Y1167275D1*
X1080323Y1165374D1*
X1079372Y1162500D1*
Y1157702D1*
X1080323Y1154850D1*
X1081296Y1152927D1*
X1083197Y1151026D1*
X1085120Y1150053D1*
X1088945D1*
X1090846Y1151026D1*
X1092770Y1152927D1*
X1093720Y1154850D1*
X1100869Y1165351D2*
Y1166302D1*
X1101819Y1168225D1*
X1102770Y1169176D1*
X1104693Y1170127D1*
X1108518D1*
X1110419Y1169176D1*
X1111370Y1168225D1*
X1112343Y1166302D1*
Y1164401D1*
X1111370Y1162477D1*
X1109469Y1159625D1*
X1099896Y1150053D1*
X1113293D1*
X1121392Y1170127D2*
X1131894D1*
X1126168Y1162477D1*
X1129042D1*
X1130943Y1161527D1*
X1131894Y1160576D1*
X1132866Y1157702D1*
Y1155801D1*
X1131894Y1152927D1*
X1129992Y1151003D1*
X1127118Y1150053D1*
X1124244D1*
X1121392Y1151003D1*
X1120442Y1151976D1*
X1119469Y1153877D1*
X1094419Y971853D2*
X1093468Y973754D1*
X1091545Y975677D1*
X1089643Y976628D1*
X1085819D1*
X1083895Y975677D1*
X1081994Y973754D1*
X1081021Y971853D1*
X1080071Y968979D1*
Y964181D1*
X1081021Y961329D1*
X1081994Y959406D1*
X1083895Y957505D1*
X1085819Y956532D1*
X1089643D1*
X1091545Y957505D1*
X1093468Y959406D1*
X1094419Y961329D1*
X1101567Y971830D2*
Y972781D1*
X1102518Y974704D1*
X1103468Y975655D1*
X1105392Y976606D1*
X1109216D1*
X1111118Y975655D1*
X1112068Y974704D1*
X1113041Y972781D1*
Y970880D1*
X1112068Y968956D1*
X1110167Y966104D1*
X1100594Y956532D1*
X1113992D1*
X1125915Y976606D2*
X1123041Y975655D1*
X1121118Y972781D1*
X1120167Y968006D1*
Y965132D1*
X1121118Y960356D1*
X1123041Y957482D1*
X1125915Y956532D1*
X1127817D1*
X1130691Y957482D1*
X1132592Y960356D1*
X1133565Y965132D1*
Y968006D1*
X1132592Y972781D1*
X1130691Y975655D1*
X1127817Y976606D1*
X1125915D1*
X1132592Y972781D2*
X1121118Y960356D1*
X1094802Y1099748D2*
X1093851Y1101649D1*
X1091928Y1103572D1*
X1090026Y1104523D1*
X1086202D1*
X1084278Y1103572D1*
X1082377Y1101649D1*
X1081404Y1099748D1*
X1080454Y1096874D1*
Y1092076D1*
X1081404Y1089224D1*
X1082377Y1087301D1*
X1084278Y1085400D1*
X1086202Y1084427D1*
X1090026D1*
X1091928Y1085400D1*
X1093851Y1087301D1*
X1094802Y1089224D1*
X1101950Y1099725D2*
Y1100676D1*
X1102901Y1102599D1*
X1103851Y1103550D1*
X1105775Y1104501D1*
X1109599D1*
X1111501Y1103550D1*
X1112451Y1102599D1*
X1113424Y1100676D1*
Y1098775D1*
X1112451Y1096851D1*
X1110550Y1094000D1*
X1100977Y1084427D1*
X1114375D1*
X1121523Y1099725D2*
Y1100676D1*
X1122474Y1102599D1*
X1123424Y1103550D1*
X1125348Y1104501D1*
X1129173D1*
X1131074Y1103550D1*
X1132024Y1102599D1*
X1132997Y1100676D1*
Y1098775D1*
X1132024Y1096851D1*
X1130123Y1094000D1*
X1120550Y1084427D1*
X1133948D1*
X1092786Y1301918D2*
X1091835Y1303819D1*
X1089912Y1305743D1*
X1088011Y1306693D1*
X1084186D1*
X1082263Y1305743D1*
X1080361Y1303819D1*
X1079389Y1301918D1*
X1078438Y1299044D1*
Y1294247D1*
X1079389Y1291395D1*
X1080361Y1289471D1*
X1082263Y1287570D1*
X1084186Y1286597D1*
X1088011D1*
X1089912Y1287570D1*
X1091835Y1289471D1*
X1092786Y1291395D1*
X1099934Y1301896D2*
Y1302847D1*
X1100885Y1304770D1*
X1101836Y1305721D1*
X1103759Y1306671D1*
X1107584D1*
X1109485Y1305721D1*
X1110436Y1304770D1*
X1111408Y1302847D1*
Y1300945D1*
X1110436Y1299022D1*
X1108534Y1296170D1*
X1098962Y1286597D1*
X1112359D1*
X1130009Y1306671D2*
X1120458D1*
X1119507Y1298071D1*
X1120458Y1299022D1*
X1123332Y1299995D1*
X1126184D1*
X1129058Y1299022D1*
X1130981Y1297121D1*
X1131932Y1294247D1*
Y1292345D1*
X1130981Y1289471D1*
X1129058Y1287548D1*
X1126184Y1286597D1*
X1123332D1*
X1120458Y1287548D1*
X1119507Y1288521D1*
X1118535Y1290422D1*
X1097141Y1029484D2*
X1096190Y1031385D1*
X1094267Y1033308D1*
X1092366Y1034259D1*
X1088541D1*
X1086618Y1033308D1*
X1084716Y1031385D1*
X1083744Y1029484D1*
X1082793Y1026610D1*
Y1021812D1*
X1083744Y1018960D1*
X1084716Y1017037D1*
X1086618Y1015136D1*
X1088541Y1014163D1*
X1092366D1*
X1094267Y1015136D1*
X1096190Y1017037D1*
X1097141Y1018960D1*
X1104290Y1029462D2*
Y1030412D1*
X1105240Y1032336D1*
X1106191Y1033286D1*
X1108114Y1034237D1*
X1111939D1*
X1113840Y1033286D1*
X1114791Y1032336D1*
X1115763Y1030412D1*
Y1028511D1*
X1114791Y1026588D1*
X1112889Y1023736D1*
X1103317Y1014163D1*
X1116714D1*
X1122890Y1030412D2*
X1124813Y1031385D1*
X1127687Y1034237D1*
Y1014163D1*
X1498247Y1841343D2*
Y1849943D1*
X1497274Y1852817D1*
X1496323Y1853790D1*
X1494422Y1854740D1*
X1492499D1*
X1490597Y1853790D1*
X1489625Y1852817D1*
X1488674Y1849943D1*
Y1841343D1*
X1508770D1*
X1498247Y1848042D2*
X1508770Y1854740D1*
X1493471Y1861889D2*
X1492521D1*
X1490597Y1862839D1*
X1489647Y1863790D1*
X1488696Y1865713D1*
Y1869538D1*
X1489647Y1871439D1*
X1490597Y1872390D1*
X1492521Y1873363D1*
X1494422D1*
X1496345Y1872390D1*
X1499197Y1870489D1*
X1508770Y1860916D1*
Y1874313D1*
X980936Y1851999D2*
Y1837651D1*
X981887Y1834777D1*
X983810Y1832875D1*
X986684Y1831903D1*
X988585D1*
X991459Y1832875D1*
X993383Y1834777D1*
X994333Y1837651D1*
Y1851999D1*
X1001482Y1847201D2*
Y1848152D1*
X1002432Y1850075D1*
X1003383Y1851026D1*
X1005307Y1851976D1*
X1009131D1*
X1011032Y1851026D1*
X1011983Y1850075D1*
X1012956Y1848152D1*
Y1846251D1*
X1011983Y1844327D1*
X1010082Y1841475D1*
X1000509Y1831903D1*
X1013906D1*
X1898340Y1796607D2*
Y1782259D1*
X1899291Y1779385D1*
X1901214Y1777484D1*
X1904088Y1776511D1*
X1905989D1*
X1908863Y1777484D1*
X1910787Y1779385D1*
X1911737Y1782259D1*
Y1796607D1*
X1927486Y1776511D2*
Y1796585D1*
X1917913Y1783209D1*
X1932261D1*
X1790670Y2017575D2*
Y2003227D1*
X1791620Y2000353D1*
X1793544Y1998452D1*
X1796418Y1997479D1*
X1798319D1*
X1801193Y1998452D1*
X1803116Y2000353D1*
X1804067Y2003227D1*
Y2017575D1*
X1812166Y2017553D2*
X1822667D1*
X1816941Y2009904D1*
X1819815D1*
X1821717Y2008953D1*
X1822667Y2008003D1*
X1823640Y2005129D1*
Y2003227D1*
X1822667Y2000353D1*
X1820766Y1998430D1*
X1817892Y1997479D1*
X1815018D1*
X1812166Y1998430D1*
X1811215Y1999403D1*
X1810243Y2001304D1*
X1273249Y2069560D2*
Y2055212D1*
X1274200Y2052338D1*
X1276123Y2050437D1*
X1278997Y2049464D1*
X1280898D1*
X1283772Y2050437D1*
X1285696Y2052338D1*
X1286647Y2055212D1*
Y2069560D1*
X1292822Y2065713D2*
X1294746Y2066686D1*
X1297620Y2069538D1*
Y2049464D1*
X1443448Y1854035D2*
X1441547Y1853084D1*
X1439623Y1851161D1*
X1438673Y1849259D1*
Y1845435D1*
X1439623Y1843511D1*
X1441547Y1841610D1*
X1443448Y1840637D1*
X1446322Y1839687D1*
X1451119D1*
X1453971Y1840637D1*
X1455895Y1841610D1*
X1457796Y1843511D1*
X1458769Y1845435D1*
Y1849259D1*
X1457796Y1851160D1*
X1455895Y1853084D1*
X1453971Y1854035D1*
X1438695Y1862134D2*
Y1872635D1*
X1446344Y1866909D1*
Y1869783D1*
X1447295Y1871684D1*
X1448245Y1872635D1*
X1451119Y1873608D1*
X1453021D1*
X1455895Y1872635D1*
X1457818Y1870733D1*
X1458769Y1867859D1*
Y1864985D1*
X1457818Y1862134D1*
X1456845Y1861183D1*
X1454944Y1860210D1*
X2138486Y1621684D2*
X2136585Y1620733D1*
X2134661Y1618810D1*
X2133711Y1616909D1*
Y1613084D1*
X2134661Y1611161D1*
X2136585Y1609259D1*
X2138486Y1608287D1*
X2141360Y1607336D1*
X2146157D1*
X2149009Y1608287D1*
X2150933Y1609259D1*
X2152834Y1611161D1*
X2153807Y1613084D1*
Y1616909D1*
X2152834Y1618810D1*
X2150933Y1620733D1*
X2149009Y1621684D1*
X2137558Y1627860D2*
X2136585Y1629783D1*
X2133733Y1632657D1*
X2153807D1*
X2137558Y1638833D2*
X2136585Y1640756D1*
X2133733Y1643630D1*
X2153807D1*
X1525233Y2105868D2*
X1524282Y2107770D1*
X1522359Y2109693D1*
X1520457Y2110644D1*
X1516633D1*
X1514709Y2109693D1*
X1512808Y2107770D1*
X1511835Y2105868D1*
X1510885Y2102994D1*
Y2098197D1*
X1511835Y2095345D1*
X1512808Y2093422D1*
X1514709Y2091520D1*
X1516633Y2090548D1*
X1520457D1*
X1522359Y2091520D1*
X1524282Y2093422D1*
X1525233Y2095345D1*
X1532381Y2105846D2*
Y2106797D1*
X1533332Y2108720D1*
X1534282Y2109671D1*
X1536206Y2110621D1*
X1540030D1*
X1541932Y2109671D1*
X1542882Y2108720D1*
X1543855Y2106797D1*
Y2104896D1*
X1542882Y2102972D1*
X1540981Y2100120D1*
X1531408Y2090548D1*
X1544806D1*
X1956496Y1968304D2*
X1955545Y1970205D1*
X1953622Y1972129D1*
X1951720Y1973079D1*
X1947896D1*
X1945972Y1972129D1*
X1944071Y1970205D1*
X1943098Y1968304D1*
X1942148Y1965430D1*
Y1960633D1*
X1943098Y1957781D1*
X1944071Y1955857D1*
X1945972Y1953956D1*
X1947896Y1952983D1*
X1951720D1*
X1953622Y1953956D1*
X1955545Y1955857D1*
X1956496Y1957781D1*
X1967447Y1973057D2*
X1964595Y1972107D1*
X1963622Y1970205D1*
Y1968282D1*
X1964595Y1966381D1*
X1966496Y1965408D1*
X1970321Y1964457D1*
X1973195Y1963507D1*
X1975096Y1961583D1*
X1976047Y1959682D1*
Y1956808D1*
X1975096Y1954907D1*
X1974145Y1953934D1*
X1971271Y1952983D1*
X1967447D1*
X1964595Y1953934D1*
X1963622Y1954907D1*
X1962671Y1956808D1*
Y1959682D1*
X1963622Y1961583D1*
X1965545Y1963507D1*
X1968397Y1964457D1*
X1972222Y1965408D1*
X1974145Y1966381D1*
X1975096Y1968282D1*
Y1970205D1*
X1974145Y1972107D1*
X1971271Y1973057D1*
X1967447D1*
X1101702Y2084843D2*
X1100751Y2086745D1*
X1098828Y2088668D1*
X1096927Y2089619D1*
X1093102D1*
X1091179Y2088668D1*
X1089277Y2086745D1*
X1088305Y2084843D1*
X1087354Y2081969D1*
Y2077172D1*
X1088305Y2074320D1*
X1089277Y2072397D1*
X1091179Y2070495D1*
X1093102Y2069523D1*
X1096927D1*
X1098828Y2070495D1*
X1100751Y2072397D1*
X1101702Y2074320D1*
X1107878Y2085772D2*
X1109801Y2086745D1*
X1112675Y2089597D1*
Y2069523D1*
X1690222Y1799772D2*
X1688321Y1798822D1*
X1686398Y1796898D1*
X1685447Y1794997D1*
Y1791172D1*
X1686398Y1789249D1*
X1688321Y1787348D1*
X1690222Y1786375D1*
X1693096Y1785424D1*
X1697894D1*
X1700746Y1786375D1*
X1702669Y1787348D1*
X1704570Y1789249D1*
X1705543Y1791172D1*
Y1794997D1*
X1704570Y1796898D1*
X1702669Y1798822D1*
X1700746Y1799772D1*
X1692146Y1818395D2*
X1695020Y1817422D1*
X1696943Y1815521D1*
X1697894Y1812647D1*
Y1811696D1*
X1696943Y1808822D1*
X1695020Y1806921D1*
X1692146Y1805948D1*
X1691195D1*
X1688321Y1806921D1*
X1686420Y1808822D1*
X1685469Y1811696D1*
Y1812647D1*
X1686420Y1815521D1*
X1688321Y1817422D1*
X1692146Y1818395D1*
X1696943D1*
X1701718Y1817422D1*
X1704592Y1815521D1*
X1705543Y1812647D1*
Y1810745D1*
X1704592Y1807871D1*
X1702669Y1806921D1*
X2080741Y1902191D2*
X2079790Y1904092D1*
X2077867Y1906016D1*
X2075966Y1906966D1*
X2072141D1*
X2070217Y1906016D1*
X2068316Y1904092D1*
X2067343Y1902191D1*
X2066393Y1899317D1*
Y1894520D1*
X2067343Y1891668D1*
X2068316Y1889744D1*
X2070217Y1887843D1*
X2072141Y1886870D1*
X2075966D1*
X2077867Y1887843D1*
X2079790Y1889744D1*
X2080741Y1891668D1*
X2086917Y1903120D2*
X2088840Y1904092D1*
X2091714Y1906944D1*
Y1886870D1*
X2103638Y1906944D2*
X2100764Y1905994D1*
X2098840Y1903120D1*
X2097890Y1898344D1*
Y1895470D1*
X2098840Y1890695D1*
X2100764Y1887821D1*
X2103638Y1886870D1*
X2105539D1*
X2108413Y1887821D1*
X2110314Y1890695D1*
X2111287Y1895470D1*
Y1898344D1*
X2110314Y1903120D1*
X2108413Y1905994D1*
X2105539Y1906944D1*
X2103638D1*
X2110314Y1903120D2*
X2098840Y1890695D1*
X1234054Y1677079D2*
X1232153Y1676128D1*
X1230230Y1674205D1*
X1229279Y1672303D1*
Y1668479D1*
X1230230Y1666555D1*
X1232153Y1664654D1*
X1234054Y1663681D1*
X1236928Y1662731D1*
X1241726D1*
X1244578Y1663681D1*
X1246501Y1664654D1*
X1248402Y1666555D1*
X1249375Y1668479D1*
Y1672303D1*
X1248402Y1674205D1*
X1246501Y1676128D1*
X1244578Y1677079D1*
X1232153Y1694728D2*
X1230252Y1693778D1*
X1229301Y1690904D1*
Y1689002D1*
X1230252Y1686128D1*
X1233126Y1684205D1*
X1237901Y1683254D1*
X1242676D1*
X1246501Y1684205D1*
X1248424Y1686128D1*
X1249375Y1689002D1*
Y1689953D1*
X1248424Y1692805D1*
X1246501Y1694728D1*
X1243627Y1695679D1*
X1242676D1*
X1239802Y1694728D1*
X1237901Y1692805D1*
X1236950Y1689953D1*
Y1689002D1*
X1237901Y1686128D1*
X1239802Y1684205D1*
X1242676Y1683254D1*
X2049112Y1529581D2*
X2057712D1*
X2060586Y1530554D1*
X2061558Y1531505D1*
X2062509Y1533406D1*
Y1535329D1*
X2061558Y1537231D1*
X2060586Y1538203D1*
X2057712Y1539154D1*
X2049112D1*
Y1519058D1*
X2055810Y1529581D2*
X2062509Y1519058D1*
X2078257D2*
Y1539132D1*
X2068685Y1525757D1*
X2083033D1*
X930873Y2010822D2*
X929922Y2012724D1*
X927999Y2014647D1*
X926097Y2015598D1*
X922273D1*
X920349Y2014647D1*
X918448Y2012724D1*
X917475Y2010822D1*
X916525Y2007948D1*
Y2003151D1*
X917475Y2000299D1*
X918448Y1998376D1*
X920349Y1996474D1*
X922273Y1995502D1*
X926097D1*
X927999Y1996474D1*
X929922Y1998376D1*
X930873Y2000299D1*
X946621Y1995502D2*
Y2015576D1*
X937048Y2002200D1*
X951396D1*
X1130796Y1644801D2*
X1139396D1*
X1142270Y1645773D1*
X1143242Y1646724D1*
X1144193Y1648625D1*
Y1650549D1*
X1143242Y1652450D1*
X1142270Y1653423D1*
X1139396Y1654373D1*
X1130796D1*
Y1634277D1*
X1137494Y1644801D2*
X1144193Y1634277D1*
X1152292Y1654351D2*
X1162793D1*
X1157067Y1646702D1*
X1159941D1*
X1161843Y1645751D1*
X1162793Y1644801D1*
X1163766Y1641927D1*
Y1640025D1*
X1162793Y1637151D1*
X1160892Y1635228D1*
X1158018Y1634277D1*
X1155144D1*
X1152292Y1635228D1*
X1151341Y1636201D1*
X1150369Y1638102D1*
X1625898Y2064379D2*
X1624947Y2066280D1*
X1623024Y2068203D1*
X1621123Y2069154D1*
X1617298D1*
X1615375Y2068203D1*
X1613473Y2066280D1*
X1612501Y2064379D1*
X1611550Y2061505D1*
Y2056707D1*
X1612501Y2053855D1*
X1613473Y2051932D1*
X1615375Y2050031D1*
X1617298Y2049058D1*
X1621123D1*
X1623024Y2050031D1*
X1624947Y2051932D1*
X1625898Y2053855D1*
X1635898Y2049058D2*
X1645471Y2069132D1*
X1632074D1*
X1214605Y1867110D2*
X1213655Y1869011D1*
X1211731Y1870934D1*
X1209830Y1871885D1*
X1206005D1*
X1204082Y1870934D1*
X1202181Y1869011D1*
X1201208Y1867110D1*
X1200257Y1864236D1*
Y1859438D1*
X1201208Y1856586D1*
X1202181Y1854663D1*
X1204082Y1852762D1*
X1206005Y1851789D1*
X1209830D1*
X1211731Y1852762D1*
X1213655Y1854663D1*
X1214605Y1856586D1*
X1232255Y1871863D2*
X1222704D1*
X1221754Y1863263D1*
X1222704Y1864214D1*
X1225578Y1865186D1*
X1228430D1*
X1231304Y1864214D1*
X1233228Y1862312D1*
X1234178Y1859438D1*
Y1857537D1*
X1233228Y1854663D1*
X1231304Y1852740D1*
X1228430Y1851789D1*
X1225578D1*
X1222704Y1852740D1*
X1221754Y1853712D1*
X1220781Y1855614D1*
X1244987Y844470D2*
X1253587D1*
X1256461Y845443D1*
X1257434Y846393D1*
X1258384Y848294D1*
Y850218D1*
X1257434Y852119D1*
X1256461Y853092D1*
X1253587Y854043D1*
X1244987D1*
Y833947D1*
X1251685Y844470D2*
X1258384Y833947D1*
X1265533Y849245D2*
Y850196D1*
X1266483Y852119D1*
X1267434Y853070D1*
X1269357Y854020D1*
X1273182D1*
X1275083Y853070D1*
X1276034Y852119D1*
X1277007Y850196D1*
Y848294D1*
X1276034Y846371D1*
X1274133Y843519D1*
X1264560Y833947D1*
X1277957D1*
X1286056Y854020D2*
X1296557D1*
X1290832Y846371D1*
X1293706D1*
X1295607Y845420D1*
X1296557Y844470D1*
X1297530Y841596D1*
Y839695D1*
X1296557Y836821D1*
X1294656Y834897D1*
X1291782Y833947D1*
X1288908D1*
X1286056Y834897D1*
X1285106Y835870D1*
X1284133Y837771D1*
X1455394Y1537324D2*
X1454444Y1539225D1*
X1452520Y1541148D1*
X1450619Y1542099D1*
X1446794D1*
X1444871Y1541148D1*
X1442970Y1539225D1*
X1441997Y1537324D1*
X1441046Y1534450D1*
Y1529652D1*
X1441997Y1526800D1*
X1442970Y1524877D1*
X1444871Y1522976D1*
X1446794Y1522003D1*
X1450619D1*
X1452520Y1522976D1*
X1454444Y1524877D1*
X1455394Y1526800D1*
X1462543Y1537302D2*
Y1538252D1*
X1463493Y1540176D1*
X1464444Y1541126D1*
X1466367Y1542077D1*
X1470192D1*
X1472093Y1541126D1*
X1473044Y1540176D1*
X1474017Y1538252D1*
Y1536351D1*
X1473044Y1534428D1*
X1471143Y1531576D1*
X1461570Y1522003D1*
X1474967D1*
X1485918Y1542077D2*
X1483066Y1541126D1*
X1482094Y1539225D1*
Y1537302D1*
X1483066Y1535400D1*
X1484968Y1534428D1*
X1488792Y1533477D1*
X1491666Y1532526D1*
X1493567Y1530603D1*
X1494518Y1528702D1*
Y1525828D1*
X1493567Y1523926D1*
X1492617Y1522954D1*
X1489743Y1522003D1*
X1485918D1*
X1483066Y1522954D1*
X1482094Y1523926D1*
X1481143Y1525828D1*
Y1528702D1*
X1482094Y1530603D1*
X1484017Y1532526D1*
X1486869Y1533477D1*
X1490693Y1534428D1*
X1492617Y1535400D1*
X1493567Y1537302D1*
Y1539225D1*
X1492617Y1541126D1*
X1489743Y1542077D1*
X1485918D1*
X1364259Y1501971D2*
X1363309Y1503872D1*
X1361385Y1505795D1*
X1359484Y1506746D1*
X1355659D1*
X1353736Y1505795D1*
X1351835Y1503872D1*
X1350862Y1501971D1*
X1349911Y1499097D1*
Y1494299D1*
X1350862Y1491447D1*
X1351835Y1489524D1*
X1353736Y1487623D1*
X1355659Y1486650D1*
X1359484D1*
X1361385Y1487623D1*
X1363309Y1489524D1*
X1364259Y1491447D1*
X1372358Y1506724D2*
X1382859D1*
X1377134Y1499075D1*
X1380008D1*
X1381909Y1498124D1*
X1382859Y1497173D1*
X1383832Y1494299D1*
Y1492398D1*
X1382859Y1489524D1*
X1380958Y1487601D1*
X1378084Y1486650D1*
X1375210D1*
X1372358Y1487601D1*
X1371408Y1488573D1*
X1370435Y1490475D1*
X1390008Y1502899D2*
X1391931Y1503872D1*
X1394805Y1506724D1*
Y1486650D1*
X1360258Y1434691D2*
X1359308Y1436592D1*
X1357384Y1438516D1*
X1355483Y1439466D1*
X1351658D1*
X1349735Y1438516D1*
X1347834Y1436592D1*
X1346861Y1434691D1*
X1345910Y1431817D1*
Y1427020D1*
X1346861Y1424168D1*
X1347834Y1422244D1*
X1349735Y1420343D1*
X1351658Y1419370D1*
X1355483D1*
X1357384Y1420343D1*
X1359308Y1422244D1*
X1360258Y1424168D1*
X1368358Y1439444D2*
X1378859D1*
X1373133Y1431795D1*
X1376007D1*
X1377908Y1430844D1*
X1378859Y1429894D1*
X1379831Y1427020D1*
Y1425118D1*
X1378859Y1422244D1*
X1376957Y1420321D1*
X1374083Y1419370D1*
X1371209D1*
X1368358Y1420321D1*
X1367407Y1421294D1*
X1366434Y1423195D1*
X1391755Y1439444D2*
X1388881Y1438494D1*
X1386958Y1435620D1*
X1386007Y1430844D1*
Y1427970D1*
X1386958Y1423195D1*
X1388881Y1420321D1*
X1391755Y1419370D1*
X1393656D1*
X1396530Y1420321D1*
X1398432Y1423195D1*
X1399404Y1427970D1*
Y1430844D1*
X1398432Y1435620D1*
X1396530Y1438494D1*
X1393656Y1439444D1*
X1391755D1*
X1398432Y1435620D2*
X1386958Y1423195D1*
X515394Y2069571D2*
X523993D1*
X526867Y2070544D1*
X527840Y2071494D1*
X528791Y2073396D1*
Y2075319D1*
X527840Y2077220D1*
X526867Y2078193D1*
X523993Y2079144D1*
X515394D1*
Y2059048D1*
X522092Y2069571D2*
X528791Y2059048D1*
X534967Y2075297D2*
X536890Y2076270D1*
X539764Y2079121D1*
Y2059048D1*
X516094Y2221785D2*
Y2201689D1*
X522793D1*
X525667Y2202662D1*
X527590Y2204563D1*
X528541Y2206487D1*
X529492Y2209339D1*
Y2214136D1*
X528541Y2217010D1*
X527590Y2218911D1*
X525667Y2220835D1*
X522793Y2221785D1*
X516094D1*
X535667Y2217939D2*
X537591Y2218911D1*
X540465Y2221763D1*
Y2201689D1*
X1611840Y1515413D2*
X1610889Y1517314D1*
X1608966Y1519238D1*
X1607065Y1520188D1*
X1603240D1*
X1601316Y1519238D1*
X1599415Y1517314D1*
X1598442Y1515413D1*
X1597492Y1512539D1*
Y1507741D1*
X1598442Y1504890D1*
X1599415Y1502966D1*
X1601316Y1501065D1*
X1603240Y1500092D1*
X1607065D1*
X1608966Y1501065D1*
X1610889Y1502966D1*
X1611840Y1504890D1*
X1619939Y1520166D2*
X1630440D1*
X1624714Y1512517D1*
X1627588D1*
X1629489Y1511566D1*
X1630440Y1510615D1*
X1631413Y1507741D1*
Y1505840D1*
X1630440Y1502966D1*
X1628539Y1501043D1*
X1625665Y1500092D1*
X1622791D1*
X1619939Y1501043D1*
X1618988Y1502016D1*
X1618015Y1503917D1*
X1639512Y1520166D2*
X1650013D1*
X1644287Y1512517D1*
X1647161D1*
X1649062Y1511566D1*
X1650013Y1510615D1*
X1650986Y1507741D1*
Y1505840D1*
X1650013Y1502966D1*
X1648112Y1501043D1*
X1645238Y1500092D1*
X1642364D1*
X1639512Y1501043D1*
X1638561Y1502016D1*
X1637589Y1503917D1*
X1613571Y1552737D2*
X1612620Y1554638D1*
X1610697Y1556562D1*
X1608795Y1557512D1*
X1604971D1*
X1603047Y1556562D1*
X1601146Y1554638D1*
X1600173Y1552737D1*
X1599223Y1549863D1*
Y1545066D1*
X1600173Y1542214D1*
X1601146Y1540290D1*
X1603047Y1538389D1*
X1604971Y1537416D1*
X1608795D1*
X1610697Y1538389D1*
X1612620Y1540290D1*
X1613571Y1542214D1*
X1621670Y1557490D2*
X1632171D1*
X1626445Y1549841D1*
X1629319D1*
X1631220Y1548890D1*
X1632171Y1547940D1*
X1633144Y1545066D1*
Y1543164D1*
X1632171Y1540290D1*
X1630270Y1538367D1*
X1627396Y1537416D1*
X1624522D1*
X1621670Y1538367D1*
X1620719Y1539340D1*
X1619746Y1541241D1*
X1640292Y1552715D2*
Y1553666D1*
X1641243Y1555589D1*
X1642194Y1556540D1*
X1644117Y1557490D1*
X1647942D1*
X1649843Y1556540D1*
X1650793Y1555589D1*
X1651766Y1553666D1*
Y1551764D1*
X1650793Y1549841D1*
X1648892Y1546989D1*
X1639320Y1537416D1*
X1652717D1*
X970681Y1480315D2*
X979281D1*
X982155Y1481288D1*
X983128Y1482238D1*
X984078Y1484140D1*
Y1486063D1*
X983128Y1487964D1*
X982155Y1488937D1*
X979281Y1489888D1*
X970681D1*
Y1469792D1*
X977380Y1480315D2*
X984078Y1469792D1*
X991227Y1485090D2*
Y1486041D1*
X992177Y1487964D1*
X993128Y1488915D1*
X995051Y1489866D1*
X998876D1*
X1000777Y1488915D1*
X1001728Y1487964D1*
X1002701Y1486041D1*
Y1484140D1*
X1001728Y1482216D1*
X999827Y1479364D1*
X990254Y1469792D1*
X1003651D1*
X1015575Y1489866D2*
X1012701Y1488915D1*
X1010778Y1486041D1*
X1009827Y1481266D1*
Y1478392D1*
X1010778Y1473616D1*
X1012701Y1470742D1*
X1015575Y1469792D1*
X1017476D1*
X1020350Y1470742D1*
X1022252Y1473616D1*
X1023224Y1478392D1*
Y1481266D1*
X1022252Y1486041D1*
X1020350Y1488915D1*
X1017476Y1489866D1*
X1015575D1*
X1022252Y1486041D2*
X1010778Y1473616D1*
X1118457Y1532617D2*
X1127057D1*
X1129931Y1533590D1*
X1130904Y1534540D1*
X1131855Y1536441D1*
Y1538365D1*
X1130904Y1540266D1*
X1129931Y1541239D1*
X1127057Y1542189D1*
X1118457D1*
Y1522093D1*
X1125156Y1532617D2*
X1131855Y1522093D1*
X1139003Y1537392D2*
Y1538343D1*
X1139954Y1540266D1*
X1140904Y1541217D1*
X1142828Y1542167D1*
X1146652D1*
X1148554Y1541217D1*
X1149504Y1540266D1*
X1150477Y1538343D1*
Y1536441D1*
X1149504Y1534518D1*
X1147603Y1531666D1*
X1138030Y1522093D1*
X1151428D1*
X1157603Y1538343D2*
X1159527Y1539315D1*
X1162401Y1542167D1*
Y1522093D1*
X1064916Y1537955D2*
X1063965Y1539856D1*
X1062042Y1541780D1*
X1060141Y1542730D1*
X1056316D1*
X1054393Y1541780D1*
X1052491Y1539856D1*
X1051519Y1537955D1*
X1050568Y1535081D1*
Y1530283D1*
X1051519Y1527432D1*
X1052491Y1525508D1*
X1054393Y1523607D1*
X1056316Y1522634D1*
X1060141D1*
X1062042Y1523607D1*
X1063965Y1525508D1*
X1064916Y1527432D1*
X1072064Y1537933D2*
Y1538883D1*
X1073015Y1540807D1*
X1073966Y1541757D1*
X1075889Y1542708D1*
X1079714D1*
X1081615Y1541757D1*
X1082566Y1540807D1*
X1083538Y1538883D1*
Y1536982D1*
X1082566Y1535059D1*
X1080664Y1532207D1*
X1071092Y1522634D1*
X1084489D1*
X1094489D2*
X1104062Y1542708D1*
X1090665D1*
X1239362Y1259929D2*
X1240313Y1260902D1*
X1239362Y1261852D1*
X1238411Y1260902D1*
X1239362Y1259929D1*
X1246061Y1260902D2*
X1262332D1*
X1265206Y1259929D1*
X1266157Y1258028D1*
Y1256104D1*
X1246083Y1268028D2*
X1259480D1*
X1249907D2*
X1247033Y1270902D1*
X1246083Y1272825D1*
Y1275677D1*
X1247033Y1277601D1*
X1249907Y1278551D1*
X1259480D1*
X1249907D2*
X1247033Y1281425D1*
X1246083Y1283349D1*
Y1286201D1*
X1247033Y1288124D1*
X1249907Y1289097D1*
X1259480D1*
X1246083Y1295272D2*
X1266179D1*
X1248957D2*
X1247055Y1297196D1*
X1246083Y1299097D1*
Y1301971D1*
X1247055Y1303894D1*
X1248957Y1305796D1*
X1251831Y1306768D1*
X1253754D1*
X1256606Y1305796D1*
X1258529Y1303894D1*
X1259480Y1301971D1*
Y1299097D1*
X1258529Y1297196D1*
X1256606Y1295272D1*
X1239406Y1314867D2*
Y1325369D1*
X1247055Y1319643D1*
Y1322517D1*
X1248006Y1324418D1*
X1248957Y1325369D1*
X1251831Y1326341D1*
X1253732D1*
X1256606Y1325369D1*
X1258529Y1323467D1*
X1259480Y1320593D1*
Y1317719D1*
X1258529Y1314867D1*
X1257557Y1313917D1*
X1255655Y1312944D1*
X1257557Y1333468D2*
X1258529Y1332517D1*
X1259480Y1333468D1*
X1258529Y1334440D1*
X1257557Y1333468D1*
X1259480Y1350189D2*
X1239406D1*
X1252781Y1340616D1*
Y1354964D1*
X1201286Y1379147D2*
X1209886D1*
X1212760Y1380120D1*
X1213733Y1381070D1*
X1214683Y1382972D1*
Y1384895D1*
X1213733Y1386796D1*
X1212760Y1387769D1*
X1209886Y1388720D1*
X1201286D1*
Y1368624D1*
X1207985Y1379147D2*
X1214683Y1368624D1*
X1222782Y1388698D2*
X1233284D1*
X1227558Y1381048D1*
X1230432D1*
X1232333Y1380098D1*
X1233284Y1379147D1*
X1234256Y1376273D1*
Y1374372D1*
X1233284Y1371498D1*
X1231382Y1369574D1*
X1228508Y1368624D1*
X1225634D1*
X1222782Y1369574D1*
X1221832Y1370547D1*
X1220859Y1372448D1*
X1241383Y1370547D2*
X1240432Y1369574D1*
X1241383Y1368624D1*
X1242355Y1369574D1*
X1241383Y1370547D1*
X1250454Y1388698D2*
X1260956D1*
X1255230Y1381048D1*
X1258104D1*
X1260005Y1380098D1*
X1260956Y1379147D1*
X1261928Y1376273D1*
Y1374372D1*
X1260956Y1371498D1*
X1259054Y1369574D1*
X1256180Y1368624D1*
X1253306D1*
X1250454Y1369574D1*
X1249504Y1370547D1*
X1248531Y1372448D1*
X1270028Y1388698D2*
X1280529D1*
X1274803Y1381048D1*
X1277677D1*
X1279578Y1380098D1*
X1280529Y1379147D1*
X1281501Y1376273D1*
Y1374372D1*
X1280529Y1371498D1*
X1278627Y1369574D1*
X1275753Y1368624D1*
X1272879D1*
X1270028Y1369574D1*
X1269077Y1370547D1*
X1268104Y1372448D1*
X1932924Y1436882D2*
X1941523D1*
X1944397Y1437855D1*
X1945370Y1438805D1*
X1946321Y1440707D1*
Y1442630D1*
X1945370Y1444531D1*
X1944397Y1445504D1*
X1941523Y1446455D1*
X1932924D1*
Y1426359D1*
X1939622Y1436882D2*
X1946321Y1426359D1*
X1957272Y1446432D2*
X1954420Y1445482D1*
X1953447Y1443581D1*
Y1441657D1*
X1954420Y1439756D1*
X1956321Y1438783D1*
X1960146Y1437833D1*
X1963020Y1436882D1*
X1964921Y1434959D1*
X1965872Y1433057D1*
Y1430183D1*
X1964921Y1428282D1*
X1963970Y1427309D1*
X1961096Y1426359D1*
X1957272D1*
X1954420Y1427309D1*
X1953447Y1428282D1*
X1952497Y1430183D1*
Y1433057D1*
X1953447Y1434959D1*
X1955371Y1436882D1*
X1958222Y1437833D1*
X1962047Y1438783D1*
X1963970Y1439756D1*
X1964921Y1441657D1*
Y1443581D1*
X1963970Y1445482D1*
X1961096Y1446432D1*
X1957272D1*
X1733108Y1520520D2*
X1741708D1*
X1744582Y1521492D1*
X1745554Y1522443D1*
X1746505Y1524344D1*
Y1526268D1*
X1745554Y1528169D1*
X1744582Y1529142D1*
X1741708Y1530092D1*
X1733108D1*
Y1509996D1*
X1739806Y1520520D2*
X1746505Y1509996D1*
X1752681Y1526246D2*
X1754604Y1527218D1*
X1757478Y1530070D1*
Y1509996D1*
X1763654Y1526246D2*
X1765577Y1527218D1*
X1768451Y1530070D1*
Y1509996D1*
X796880Y1969703D2*
Y1954405D1*
X795930Y1951531D1*
X794957Y1950580D1*
X793056Y1949607D1*
X791132D1*
X789231Y1950580D1*
X788280Y1951531D1*
X787308Y1954405D1*
Y1956306D1*
X804029Y1964906D2*
Y1965857D1*
X804979Y1967780D1*
X805930Y1968731D1*
X807853Y1969681D1*
X811678D1*
X813579Y1968731D1*
X814530Y1967780D1*
X815503Y1965857D1*
Y1963955D1*
X814530Y1962032D1*
X812629Y1959180D1*
X803056Y1949607D1*
X816453D1*
X651506Y2558037D2*
Y2542739D1*
X650555Y2539865D1*
X649582Y2538914D1*
X647681Y2537941D1*
X645758D1*
X643857Y2538914D1*
X642906Y2539865D1*
X641933Y2542739D1*
Y2544640D1*
X657682Y2554191D2*
X659605Y2555163D1*
X662479Y2558015D1*
Y2537941D1*
X1815039Y824397D2*
X1814088Y826298D1*
X1812165Y828222D1*
X1810263Y829172D1*
X1806439D1*
X1804515Y828222D1*
X1802614Y826298D1*
X1801641Y824397D1*
X1800691Y821523D1*
Y816726D1*
X1801641Y813874D1*
X1802614Y811950D1*
X1804515Y810049D1*
X1806439Y809076D1*
X1810263D1*
X1812165Y810049D1*
X1814088Y811950D1*
X1815039Y813874D1*
X1821214Y825326D2*
X1823138Y826298D1*
X1826012Y829150D1*
Y809076D1*
X1843661Y829150D2*
X1834111D1*
X1833160Y820550D1*
X1834111Y821501D1*
X1836985Y822474D1*
X1839837D1*
X1842711Y821501D1*
X1844634Y819600D1*
X1845585Y816726D1*
Y814824D1*
X1844634Y811950D1*
X1842711Y810027D1*
X1839837Y809076D1*
X1836985D1*
X1834111Y810027D1*
X1833160Y811000D1*
X1832188Y812901D1*
X2600697Y2121658D2*
Y2106359D1*
X2599747Y2103485D1*
X2598774Y2102535D1*
X2596873Y2101562D1*
X2594949D1*
X2593048Y2102535D1*
X2592097Y2103485D1*
X2591125Y2106359D1*
Y2108261D1*
X2622172Y2101562D2*
Y2121658D1*
X2614522Y2101562D1*
X2606873Y2121658D1*
Y2101562D1*
X2628347Y2111135D2*
X2636969D1*
X2639821Y2112085D1*
X2640794Y2113058D1*
X2641745Y2114959D1*
Y2117833D1*
X2640794Y2119735D1*
X2639821Y2120707D1*
X2636969Y2121658D1*
X2628347D1*
Y2101562D1*
X2647920Y2117811D2*
X2649844Y2118784D1*
X2652718Y2121636D1*
Y2101562D1*
X2595466Y1935058D2*
Y1919760D1*
X2594515Y1916886D1*
X2593542Y1915935D1*
X2591641Y1914962D1*
X2589718D1*
X2587816Y1915935D1*
X2586866Y1916886D1*
X2585893Y1919760D1*
Y1921661D1*
X2616940Y1914962D2*
Y1935058D1*
X2609291Y1914962D1*
X2601641Y1935058D1*
Y1914962D1*
X2623116Y1924535D2*
X2631738D1*
X2634590Y1925486D1*
X2635562Y1926458D1*
X2636513Y1928360D1*
Y1931234D1*
X2635562Y1933135D1*
X2634590Y1934108D1*
X2631738Y1935058D1*
X2623116D1*
Y1914962D1*
X2643661Y1930261D2*
Y1931211D1*
X2644612Y1933135D1*
X2645563Y1934086D1*
X2647486Y1935036D1*
X2651311D1*
X2653212Y1934086D1*
X2654163Y1933135D1*
X2655135Y1931211D1*
Y1929310D1*
X2654163Y1927387D1*
X2652261Y1924535D1*
X2642689Y1914962D1*
X2656086D1*
X2598909Y1741186D2*
Y1725887D1*
X2597959Y1723013D1*
X2596986Y1722062D1*
X2595085Y1721090D1*
X2593161D1*
X2591260Y1722062D1*
X2590309Y1723013D1*
X2589337Y1725887D1*
Y1727788D1*
X2620384Y1721090D2*
Y1741186D1*
X2612734Y1721090D1*
X2605085Y1741186D1*
Y1721090D1*
X2626559Y1730662D2*
X2635181D1*
X2638033Y1731613D1*
X2639006Y1732586D1*
X2639957Y1734487D1*
Y1737361D1*
X2639006Y1739262D1*
X2638033Y1740235D1*
X2635181Y1741186D1*
X2626559D1*
Y1721090D1*
X2648056Y1741163D2*
X2658557D1*
X2652831Y1733514D1*
X2655705D1*
X2657606Y1732564D1*
X2658557Y1731613D1*
X2659530Y1728739D1*
Y1726838D1*
X2658557Y1723964D1*
X2656656Y1722040D1*
X2653782Y1721090D1*
X2650908D1*
X2648056Y1722040D1*
X2647105Y1723013D1*
X2646132Y1724914D1*
X1005613Y1624181D2*
X1016114D1*
X1010388Y1616532D1*
X1013262D1*
X1015164Y1615581D1*
X1016114Y1614631D1*
X1017087Y1611757D1*
Y1609855D1*
X1016114Y1606981D1*
X1014213Y1605058D1*
X1011339Y1604107D1*
X1008465D1*
X1005613Y1605058D1*
X1004662Y1606031D1*
X1003690Y1607932D1*
X1024213Y1606031D2*
X1023263Y1605058D1*
X1024213Y1604107D1*
X1025186Y1605058D1*
X1024213Y1606031D1*
X1033285Y1624181D2*
X1043786D1*
X1038060Y1616532D1*
X1040934D1*
X1042836Y1615581D1*
X1043786Y1614631D1*
X1044759Y1611757D1*
Y1609855D1*
X1043786Y1606981D1*
X1041885Y1605058D1*
X1039011Y1604107D1*
X1036137D1*
X1033285Y1605058D1*
X1032334Y1606031D1*
X1031362Y1607932D1*
X1050935Y1624203D2*
X1058584Y1604107D1*
X1066233Y1624203D1*
X1586577Y1800273D2*
Y1801224D1*
X1587528Y1803147D1*
X1588478Y1804098D1*
X1590402Y1805049D1*
X1594226D1*
X1596128Y1804098D1*
X1597078Y1803147D1*
X1598051Y1801224D1*
Y1799323D1*
X1597078Y1797399D1*
X1595177Y1794548D1*
X1585604Y1784975D1*
X1599002D1*
X1606128Y1786898D2*
X1605177Y1785925D1*
X1606128Y1784975D1*
X1607101Y1785925D1*
X1606128Y1786898D1*
X1624750Y1805049D2*
X1615200D1*
X1614249Y1796449D1*
X1615200Y1797399D1*
X1618074Y1798372D1*
X1620926D1*
X1623800Y1797399D1*
X1625723Y1795498D1*
X1626674Y1792624D1*
Y1790723D1*
X1625723Y1787849D1*
X1623800Y1785925D1*
X1620926Y1784975D1*
X1618074D1*
X1615200Y1785925D1*
X1614249Y1786898D1*
X1613276Y1788800D1*
X1632849Y1805071D2*
X1640499Y1784975D1*
X1648148Y1805071D1*
X1527049Y1711516D2*
X1538103D1*
X1545252Y1716777D2*
Y1717728D1*
X1546202Y1719651D1*
X1547153Y1720602D1*
X1549076Y1721553D1*
X1552901D1*
X1554802Y1720602D1*
X1555753Y1719651D1*
X1556725Y1717728D1*
Y1715827D1*
X1555753Y1713903D1*
X1553851Y1711051D1*
X1544279Y1701479D1*
X1557676D1*
X1564802Y1703402D2*
X1563852Y1702429D1*
X1564802Y1701479D1*
X1565775Y1702429D1*
X1564802Y1703402D1*
X1583425Y1721553D2*
X1573874D1*
X1572924Y1712953D1*
X1573874Y1713903D1*
X1576748Y1714876D1*
X1579600D1*
X1582474Y1713903D1*
X1584398Y1712002D1*
X1585348Y1709128D1*
Y1707227D1*
X1584398Y1704353D1*
X1582474Y1702429D1*
X1579600Y1701479D1*
X1576748D1*
X1573874Y1702429D1*
X1572924Y1703402D1*
X1571951Y1705303D1*
X1591524Y1721575D2*
X1599173Y1701479D1*
X1606823Y1721575D1*
X1689590Y1747083D2*
D69*
Y1757120D1*
X1684803Y1750432D1*
X1691977D1*
X1695541Y1748044D2*
X1695065Y1747558D1*
X1695541Y1747083D1*
X1696027Y1747558D1*
X1695541Y1748044D1*
X1701027Y1747083D2*
X1705813Y1757120D1*
X1699115D1*
X1718622Y1753781D2*
Y1747083D1*
Y1751869D2*
X1720059Y1753306D1*
X1721020Y1753781D1*
X1722446D1*
X1723408Y1753306D1*
X1723883Y1751869D1*
Y1747083D1*
Y1751869D2*
X1725320Y1753306D1*
X1726282Y1753781D1*
X1727708D1*
X1728670Y1753306D1*
X1729156Y1751869D1*
Y1747083D1*
X1732244Y1757131D2*
Y1747083D1*
X1737030Y1753781D2*
X1732244Y1748995D1*
X1734156Y1750907D2*
X1737505Y1747083D1*
X1744418Y1757131D2*
X1743467D1*
X1742506Y1756655D1*
X1742030Y1755218D1*
Y1747083D1*
X1740593Y1753781D2*
X1743943D1*
X1793062Y1376912D2*
X1794024Y1377398D1*
X1795461Y1378824D1*
Y1368787D1*
X1798549Y1375486D2*
Y1368787D1*
Y1373574D2*
X1799986Y1375011D1*
X1800947Y1375486D1*
X1802373D1*
X1803335Y1375011D1*
X1803810Y1373574D1*
Y1368787D1*
Y1373574D2*
X1805247Y1375011D1*
X1806209Y1375486D1*
X1807635D1*
X1808597Y1375011D1*
X1809083Y1373574D1*
Y1368787D1*
X1812171Y1378835D2*
Y1368787D1*
X1816957Y1375486D2*
X1812171Y1370700D1*
X1814083Y1372612D2*
X1817432Y1368787D1*
X1824345Y1378835D2*
X1823394D1*
X1822433Y1378360D1*
X1821957Y1376923D1*
Y1368787D1*
X1820520Y1375486D2*
X1823870D1*
X625727Y1681572D2*
D70*
X607090D1*
Y1651428D1*
X625727D1*
X607090Y1667212D2*
X618564D1*
X642154Y1681538D2*
X637876Y1680112D1*
X636417Y1677260D1*
Y1674375D1*
X637876Y1671524D1*
X640728Y1670064D1*
X646465Y1668638D1*
X650776Y1667212D1*
X653627Y1664327D1*
X655053Y1661476D1*
Y1657164D1*
X653627Y1654313D1*
X652202Y1652853D1*
X647891Y1651428D1*
X642154D1*
X637876Y1652853D1*
X636417Y1654313D1*
X634991Y1657164D1*
Y1661476D1*
X636417Y1664327D1*
X639302Y1667212D1*
X643579Y1668638D1*
X649316Y1670064D1*
X652202Y1671524D1*
X653627Y1674375D1*
Y1677260D1*
X652202Y1680112D1*
X647891Y1681538D1*
X642154D1*
X623150Y1576952D2*
X604513D1*
Y1546808D1*
X623150D1*
X604513Y1562593D2*
X615987D1*
X638150Y1546808D2*
X652509Y1576919D1*
X632413D1*
X625146Y1489318D2*
X606509D1*
Y1459174D1*
X625146D1*
X606509Y1474959D2*
X617983D1*
X651620Y1485007D2*
X650194Y1487859D1*
X645883Y1489285D1*
X643031D1*
X638720Y1487859D1*
X635835Y1483548D1*
X634409Y1476385D1*
Y1469222D1*
X635835Y1463485D1*
X638720Y1460600D1*
X643031Y1459174D1*
X644457D1*
X648735Y1460600D1*
X651620Y1463485D1*
X653046Y1467796D1*
Y1469222D1*
X651620Y1473533D1*
X648735Y1476385D1*
X644457Y1477811D1*
X643031D1*
X638720Y1476385D1*
X635835Y1473533D1*
X634409Y1469222D1*
X626223Y1391965D2*
X607586D1*
Y1361821D1*
X626223D1*
X607586Y1377606D2*
X619060D1*
X652698Y1391932D2*
X638372D1*
X636946Y1379032D1*
X638372Y1380458D1*
X642683Y1381917D1*
X646961D1*
X651272Y1380458D1*
X654157Y1377606D1*
X655583Y1373295D1*
Y1370443D1*
X654157Y1366132D1*
X651272Y1363247D1*
X646961Y1361821D1*
X642683D1*
X638372Y1363247D1*
X636946Y1364706D1*
X635487Y1367558D1*
X626072Y1293163D2*
X607435D1*
Y1263019D1*
X626072D1*
X607435Y1278804D2*
X618909D1*
X649695Y1263019D2*
Y1293130D1*
X635336Y1273067D1*
X656858D1*
X623469Y1198587D2*
X604832D1*
Y1168443D1*
X623469D1*
X604832Y1184228D2*
X616306D1*
X635617Y1198554D2*
X651369D1*
X642780Y1187080D1*
X647091D1*
X649943Y1185654D1*
X651369Y1184228D1*
X652828Y1179917D1*
Y1177065D1*
X651369Y1172754D1*
X648517Y1169869D1*
X644206Y1168443D1*
X639895D1*
X635617Y1169869D1*
X634191Y1171328D1*
X632732Y1174180D1*
X620518Y1095044D2*
X601882D1*
Y1064900D1*
X620518D1*
X601882Y1080685D2*
X613355D1*
X631241Y1087848D2*
Y1089274D1*
X632667Y1092159D1*
X634093Y1093585D1*
X636978Y1095011D1*
X642715D1*
X645567Y1093585D1*
X646993Y1092159D1*
X648452Y1089274D1*
Y1086422D1*
X646993Y1083537D1*
X644141Y1079259D1*
X629782Y1064900D1*
X649878D1*
X622081Y1000446D2*
X603444D1*
Y970302D1*
X622081D1*
X603444Y986086D2*
X614918D1*
X631345Y994675D2*
X634230Y996134D1*
X638541Y1000412D1*
Y970302D1*
X498392Y1788179D2*
Y1758035D1*
X511325D1*
X515636Y1759494D1*
X517062Y1760920D1*
X518488Y1763772D1*
Y1768083D1*
X517062Y1770968D1*
X515636Y1772394D1*
X511325Y1773820D1*
X515636Y1775279D1*
X517062Y1776705D1*
X518488Y1779557D1*
Y1782442D1*
X517062Y1785294D1*
X515636Y1786753D1*
X511325Y1788179D1*
X498392D1*
Y1773820D2*
X511325D1*
X527752Y1788179D2*
X529178Y1786753D1*
X530637Y1788179D1*
X529178Y1789638D1*
X527752Y1788179D1*
X529178Y1778131D2*
Y1758035D1*
X557111Y1778131D2*
Y1758035D1*
Y1773820D2*
X554259Y1776705D1*
X551374Y1778131D1*
X547096D1*
X544211Y1776705D1*
X541359Y1773820D1*
X539900Y1769509D1*
Y1766657D1*
X541359Y1762346D1*
X544211Y1759494D1*
X547096Y1758035D1*
X551374D1*
X554259Y1759494D1*
X557111Y1762346D1*
X582160Y1773820D2*
X580734Y1776705D1*
X576423Y1778131D1*
X572112D1*
X567801Y1776705D1*
X566375Y1773820D1*
X567801Y1770968D1*
X570686Y1769509D1*
X577849Y1768083D1*
X580734Y1766657D1*
X582160Y1763772D1*
Y1762346D1*
X580734Y1759494D1*
X576423Y1758035D1*
X572112D1*
X567801Y1759494D1*
X566375Y1762346D1*
X598586Y1778131D2*
X595734Y1776705D1*
X592849Y1773820D1*
X591423Y1769509D1*
Y1766657D1*
X592849Y1762346D1*
X595734Y1759494D1*
X598586Y1758035D1*
X602897D1*
X605782Y1759494D1*
X608634Y1762346D1*
X610093Y1766657D1*
Y1769509D1*
X608634Y1773820D1*
X605782Y1776705D1*
X602897Y1778131D1*
X598586D1*
X619357D2*
Y1763772D1*
X620783Y1759494D1*
X623668Y1758035D1*
X627979D1*
X630831Y1759494D1*
X635142Y1763772D1*
Y1778131D2*
Y1758035D1*
X648716Y1788179D2*
Y1763772D1*
X650142Y1759494D1*
X653027Y1758035D1*
X655879D1*
X644405Y1778131D2*
X654453D1*
X574199Y1854106D2*
X587099D1*
X591410Y1855565D1*
X592869Y1856991D1*
X594295Y1859843D1*
Y1862728D1*
X592869Y1865580D1*
X591410Y1867039D1*
X587099Y1868465D1*
X574199D1*
Y1838321D1*
X584247Y1854106D2*
X594295Y1838321D1*
X603559Y1849795D2*
X620770D1*
Y1852680D1*
X619344Y1855565D1*
X617918Y1856991D1*
X615033Y1858417D1*
X610722D1*
X607870Y1856991D1*
X604985Y1854106D1*
X603559Y1849795D1*
Y1846943D1*
X604985Y1842632D1*
X607870Y1839780D1*
X610722Y1838321D1*
X615033D1*
X617918Y1839780D1*
X620770Y1842632D1*
X641507Y1868465D2*
X638655D1*
X635770Y1867039D1*
X634344Y1862728D1*
Y1838321D1*
X630033Y1858417D2*
X640081D1*
X1622887Y2017235D2*
D68*
Y2037309D1*
X1613314Y2023933D1*
X1627662D1*
X1634789Y2019158D2*
X1633838Y2018185D1*
X1634789Y2017235D1*
X1635761Y2018185D1*
X1634789Y2019158D1*
X1645762Y2017235D2*
X1655334Y2037309D1*
X1641937D1*
X1661510Y2030632D2*
Y2017235D1*
Y2026807D2*
X1664384Y2029681D1*
X1666307Y2030632D1*
X1669159D1*
X1671083Y2029681D1*
X1672033Y2026807D1*
Y2017235D1*
Y2026807D2*
X1674907Y2029681D1*
X1676831Y2030632D1*
X1679683D1*
X1681606Y2029681D1*
X1682579Y2026807D1*
Y2017235D1*
X1688754Y2037331D2*
Y2017235D1*
X1698327Y2030632D2*
X1688754Y2021059D1*
X1692579Y2024884D2*
X1699278Y2017235D1*
X1713103Y2037331D2*
X1711202D1*
X1709278Y2036380D1*
X1708328Y2033506D1*
Y2017235D1*
X1705454Y2030632D2*
X1712152D1*
X1950813Y1924563D2*
Y1944637D1*
X1941241Y1931261D1*
X1955589D1*
X1962715Y1926486D2*
X1961764Y1925513D1*
X1962715Y1924563D1*
X1963688Y1925513D1*
X1962715Y1926486D1*
X1973688Y1924563D2*
X1983261Y1944637D1*
X1969864D1*
X1989437Y1937960D2*
Y1924563D1*
Y1934135D2*
X1992311Y1937009D1*
X1994234Y1937960D1*
X1997086D1*
X1999009Y1937009D1*
X1999960Y1934135D1*
Y1924563D1*
Y1934135D2*
X2002834Y1937009D1*
X2004757Y1937960D1*
X2007609D1*
X2009533Y1937009D1*
X2010505Y1934135D1*
Y1924563D1*
X2016681Y1944659D2*
Y1924563D1*
X2026254Y1937960D2*
X2016681Y1928387D1*
X2020506Y1932212D2*
X2027204Y1924563D1*
X2041029Y1944659D2*
X2039128D1*
X2037205Y1943708D1*
X2036254Y1940834D1*
Y1924563D1*
X2033380Y1937960D2*
X2040079D1*
X862854Y2026109D2*
Y2046183D1*
X853281Y2032807D1*
X867629D1*
X874756Y2028032D2*
X873805Y2027059D1*
X874756Y2026109D1*
X875729Y2027059D1*
X874756Y2028032D1*
X885729Y2026109D2*
X895302Y2046183D1*
X881904D1*
X901477Y2039506D2*
Y2026109D1*
Y2035681D2*
X904351Y2038555D1*
X906275Y2039506D1*
X909127D1*
X911050Y2038555D1*
X912001Y2035681D1*
Y2026109D1*
Y2035681D2*
X914875Y2038555D1*
X916798Y2039506D1*
X919650D1*
X921573Y2038555D1*
X922546Y2035681D1*
Y2026109D1*
X928722Y2046205D2*
Y2026109D1*
X938294Y2039506D2*
X928722Y2029933D1*
X932546Y2033758D2*
X939245Y2026109D1*
X953070Y2046205D2*
X951169D1*
X949245Y2045254D1*
X948295Y2042380D1*
Y2026109D1*
X945421Y2039506D2*
X952119D1*
X1260254Y1668120D2*
X1261205Y1665246D1*
X1264079Y1663323D1*
X1268854Y1662372D1*
X1271728D1*
X1276504Y1663323D1*
X1279378Y1665246D1*
X1280328Y1668120D1*
Y1670021D1*
X1279378Y1672895D1*
X1276504Y1674797D1*
X1271728Y1675769D1*
X1268854D1*
X1264079Y1674797D1*
X1261205Y1672895D1*
X1260254Y1670021D1*
Y1668120D1*
X1264079Y1674797D2*
X1276504Y1663323D1*
X1278405Y1682896D2*
X1279378Y1681945D1*
X1280328Y1682896D1*
X1279378Y1683868D1*
X1278405Y1682896D1*
X1280328Y1699617D2*
X1260254D1*
X1273630Y1690044D1*
Y1704392D1*
X1280328Y1714392D2*
X1260254Y1723965D1*
Y1710568D1*
X1266931Y1730141D2*
X1280328D1*
X1270756D2*
X1267882Y1733015D1*
X1266931Y1734938D1*
Y1737790D1*
X1267882Y1739714D1*
X1270756Y1740664D1*
X1280328D1*
X1270756D2*
X1267882Y1743538D1*
X1266931Y1745462D1*
Y1748313D1*
X1267882Y1750237D1*
X1270756Y1751210D1*
X1280328D1*
X1260232Y1757385D2*
X1280328D1*
X1266931Y1766958D2*
X1276504Y1757385D1*
X1272679Y1761210D2*
X1280328Y1767909D1*
X1260232Y1781734D2*
Y1779832D1*
X1261183Y1777909D1*
X1264057Y1776958D1*
X1280328D1*
X1266931Y1774084D2*
Y1780783D1*
X1133036Y1627715D2*
X1143537D1*
X1137811Y1620066D1*
X1140685D1*
X1142586Y1619115D1*
X1143537Y1618165D1*
X1144510Y1615291D1*
Y1613390D1*
X1143537Y1610516D1*
X1141635Y1608592D1*
X1138761Y1607642D1*
X1135887D1*
X1133036Y1608592D1*
X1132085Y1609565D1*
X1131112Y1611466D1*
X1152609Y1627715D2*
X1163110D1*
X1157384Y1620066D1*
X1160258D1*
X1162159Y1619115D1*
X1163110Y1618165D1*
X1164083Y1615291D1*
Y1613390D1*
X1163110Y1610516D1*
X1161209Y1608592D1*
X1158335Y1607642D1*
X1155460D1*
X1152609Y1608592D1*
X1151658Y1609565D1*
X1150685Y1611466D1*
X1171209Y1609565D2*
X1170258Y1608592D1*
X1171209Y1607642D1*
X1172182Y1608592D1*
X1171209Y1609565D1*
X1179330Y1622940D2*
Y1623891D1*
X1180281Y1625814D1*
X1181231Y1626765D1*
X1183155Y1627715D1*
X1186979D1*
X1188881Y1626765D1*
X1189831Y1625814D1*
X1190804Y1623891D1*
Y1621989D1*
X1189831Y1620066D1*
X1187930Y1617214D1*
X1178357Y1607642D1*
X1191755D1*
X1197930Y1627738D2*
Y1607642D1*
X1207503Y1621039D2*
X1197930Y1611466D1*
X1201755Y1615291D2*
X1208454Y1607642D1*
X1208195Y1821998D2*
Y1842072D1*
X1198623Y1828697D1*
X1212971D1*
X1220097Y1823922D2*
X1219146Y1822949D1*
X1220097Y1821998D1*
X1221070Y1822949D1*
X1220097Y1823922D1*
X1231070Y1821998D2*
X1240643Y1842072D1*
X1227245D1*
X1246818Y1835396D2*
Y1821998D1*
Y1831571D2*
X1249692Y1834445D1*
X1251616Y1835396D1*
X1254468D1*
X1256391Y1834445D1*
X1257342Y1831571D1*
Y1821998D1*
Y1831571D2*
X1260216Y1834445D1*
X1262139Y1835396D1*
X1264991D1*
X1266914Y1834445D1*
X1267887Y1831571D1*
Y1821998D1*
X1274063Y1842094D2*
Y1821998D1*
X1283636Y1835396D2*
X1274063Y1825823D1*
X1277888Y1829648D2*
X1284586Y1821998D1*
X1298411Y1842094D2*
X1296510D1*
X1294587Y1841144D1*
X1293636Y1838270D1*
Y1821998D1*
X1290762Y1835396D2*
X1297461D1*
X1093850Y2100845D2*
Y2120919D1*
X1084278Y2107544D1*
X1098625D1*
X1105752Y2102768D2*
X1104801Y2101796D1*
X1105752Y2100845D1*
X1106725Y2101796D1*
X1105752Y2102768D1*
X1116725Y2100845D2*
X1126298Y2120919D1*
X1112900D1*
X1132473Y2114242D2*
Y2100845D1*
Y2110418D2*
X1135347Y2113292D1*
X1137271Y2114242D1*
X1140123D1*
X1142046Y2113292D1*
X1142997Y2110418D1*
Y2100845D1*
Y2110418D2*
X1145871Y2113292D1*
X1147794Y2114242D1*
X1150646D1*
X1152569Y2113292D1*
X1153542Y2110418D1*
Y2100845D1*
X1159718Y2120941D2*
Y2100845D1*
X1169290Y2114242D2*
X1159718Y2104670D1*
X1163542Y2108494D2*
X1170241Y2100845D1*
X1184066Y2120941D2*
X1182165D1*
X1180241Y2119990D1*
X1179291Y2117116D1*
Y2100845D1*
X1176417Y2114242D2*
X1183115D1*
X1383841Y2091101D2*
Y2111175D1*
X1374268Y2097800D1*
X1388616D1*
X1395743Y2093024D2*
X1394792Y2092051D1*
X1395743Y2091101D1*
X1396715Y2092051D1*
X1395743Y2093024D1*
X1406716Y2091101D2*
X1416288Y2111175D1*
X1402891D1*
X1441905Y2104498D2*
Y2091101D1*
Y2100674D2*
X1444779Y2103548D1*
X1446702Y2104498D1*
X1449554D1*
X1451477Y2103548D1*
X1452428Y2100674D1*
Y2091101D1*
Y2100674D2*
X1455302Y2103548D1*
X1457225Y2104498D1*
X1460077D1*
X1462001Y2103548D1*
X1462973Y2100674D1*
Y2091101D1*
X1469149Y2111197D2*
Y2091101D1*
X1478722Y2104498D2*
X1469149Y2094925D1*
X1472974Y2098750D2*
X1479672Y2091101D1*
X1493497Y2111197D2*
X1491596D1*
X1489673Y2110246D1*
X1488722Y2107372D1*
Y2091101D1*
X1485848Y2104498D2*
X1492547D1*
X1389694Y1791543D2*
X1390645Y1788669D1*
X1393519Y1786745D1*
X1398294Y1785795D1*
X1401168D1*
X1405943Y1786745D1*
X1408817Y1788669D1*
X1409768Y1791543D1*
Y1793444D1*
X1408817Y1796318D1*
X1405943Y1798219D1*
X1401168Y1799192D1*
X1398294D1*
X1393519Y1798219D1*
X1390645Y1796318D1*
X1389694Y1793444D1*
Y1791543D1*
X1393519Y1798219D2*
X1405943Y1786745D1*
X1407845Y1806318D2*
X1408817Y1805368D1*
X1409768Y1806318D1*
X1408817Y1807291D1*
X1407845Y1806318D1*
X1409768Y1823039D2*
X1389694D1*
X1403069Y1813467D1*
Y1827815D1*
X1409768Y1837815D2*
X1389694Y1847388D1*
Y1833990D1*
X1396371Y1853563D2*
X1409768D1*
X1400195D2*
X1397321Y1856437D1*
X1396371Y1858361D1*
Y1861213D1*
X1397321Y1863136D1*
X1400195Y1864087D1*
X1409768D1*
X1400195D2*
X1397321Y1866961D1*
X1396371Y1868884D1*
Y1871736D1*
X1397321Y1873659D1*
X1400195Y1874632D1*
X1409768D1*
X1389672Y1880808D2*
X1409768D1*
X1396371Y1890381D2*
X1405943Y1880808D1*
X1402119Y1884632D2*
X1409768Y1891331D1*
X1389672Y1905156D2*
Y1903255D1*
X1390623Y1901332D1*
X1393497Y1900381D1*
X1409768D1*
X1396371Y1897507D2*
Y1904206D1*
X1533820Y1903513D2*
X1532869D1*
X1530946Y1904463D1*
X1529995Y1905414D1*
X1529044Y1907338D1*
Y1911162D1*
X1529995Y1913063D1*
X1530946Y1914014D1*
X1532869Y1914987D1*
X1534770D1*
X1536694Y1914014D1*
X1539546Y1912113D1*
X1549118Y1902540D1*
Y1915937D1*
Y1931686D2*
X1529044D1*
X1542420Y1922113D1*
Y1936461D1*
X1547195Y1943587D2*
X1548168Y1942637D1*
X1549118Y1943587D1*
X1548168Y1944560D1*
X1547195Y1943587D1*
X1535721Y1963182D2*
X1538595Y1962210D1*
X1540518Y1960308D1*
X1541469Y1957434D1*
Y1956484D1*
X1540518Y1953610D1*
X1538595Y1951709D1*
X1535721Y1950736D1*
X1534770D1*
X1531896Y1951709D1*
X1529995Y1953610D1*
X1529044Y1956484D1*
Y1957434D1*
X1529995Y1960308D1*
X1531896Y1962210D1*
X1535721Y1963182D1*
X1540518D1*
X1545294Y1962210D1*
X1548168Y1960308D1*
X1549118Y1957434D1*
Y1955533D1*
X1548168Y1952659D1*
X1546244Y1951709D1*
X1529022Y1969358D2*
X1549118D1*
X1535721Y1978931D2*
X1545294Y1969358D1*
X1541469Y1973183D2*
X1549118Y1979881D1*
X2181565Y1583527D2*
X2161491D1*
X2174866Y1573955D1*
Y1588303D1*
X2179641Y1595429D2*
X2180614Y1594478D1*
X2181565Y1595429D1*
X2180614Y1596402D1*
X2179641Y1595429D1*
X2181565Y1606402D2*
X2161491Y1615975D1*
Y1602577D1*
X2168167Y1622150D2*
X2181565D1*
X2171992D2*
X2169118Y1625025D1*
X2168167Y1626948D1*
Y1629800D1*
X2169118Y1631723D1*
X2171992Y1632674D1*
X2181565D1*
X2171992D2*
X2169118Y1635548D1*
X2168167Y1637471D1*
Y1640323D1*
X2169118Y1642246D1*
X2171992Y1643219D1*
X2181565D1*
X2161469Y1649395D2*
X2181565D1*
X2168167Y1658968D2*
X2177740Y1649395D1*
X2173915Y1653220D2*
X2181565Y1659918D1*
X2161469Y1673743D2*
Y1671842D1*
X2162419Y1669919D1*
X2165293Y1668968D1*
X2181565D1*
X2168167Y1666094D2*
Y1672793D1*
X2120732Y1504979D2*
X2131234D1*
X2125508Y1497330D1*
X2128382D1*
X2130283Y1496379D1*
X2131234Y1495429D1*
X2132206Y1492555D1*
Y1490653D1*
X2131234Y1487779D1*
X2129332Y1485856D1*
X2126458Y1484905D1*
X2123584D1*
X2120732Y1485856D1*
X2119782Y1486829D1*
X2118809Y1488730D1*
X2140305Y1504979D2*
X2150807D1*
X2145081Y1497330D1*
X2147955D1*
X2149856Y1496379D1*
X2150807Y1495429D1*
X2151779Y1492555D1*
Y1490653D1*
X2150807Y1487779D1*
X2148905Y1485856D1*
X2146031Y1484905D1*
X2143157D1*
X2140305Y1485856D1*
X2139355Y1486829D1*
X2138382Y1488730D1*
X2158906Y1486829D2*
X2157955Y1485856D1*
X2158906Y1484905D1*
X2159878Y1485856D1*
X2158906Y1486829D1*
X2167027Y1500204D2*
Y1501155D1*
X2167978Y1503078D1*
X2168928Y1504029D1*
X2170852Y1504979D1*
X2174676D1*
X2176577Y1504029D1*
X2177528Y1503078D1*
X2178501Y1501155D1*
Y1499253D1*
X2177528Y1497330D1*
X2175627Y1494478D1*
X2166054Y1484905D1*
X2179451D1*
X2185627Y1505001D2*
Y1484905D1*
X2195200Y1498303D2*
X2185627Y1488730D1*
X2189452Y1492555D2*
X2196151Y1484905D1*
X2156474Y1771127D2*
X2136400D1*
X2149775Y1761555D1*
Y1775902D1*
X2154551Y1783029D2*
X2155523Y1782078D1*
X2156474Y1783029D1*
X2155523Y1784001D1*
X2154551Y1783029D1*
X2156474Y1794002D2*
X2136400Y1803575D1*
Y1790177D1*
X2143077Y1809750D2*
X2156474D1*
X2146901D2*
X2144027Y1812624D1*
X2143077Y1814548D1*
Y1817400D1*
X2144027Y1819323D1*
X2146901Y1820274D1*
X2156474D1*
X2146901D2*
X2144027Y1823148D1*
X2143077Y1825071D1*
Y1827923D1*
X2144027Y1829846D1*
X2146901Y1830819D1*
X2156474D1*
X2136378Y1836995D2*
X2156474D1*
X2143077Y1846567D2*
X2152649Y1836995D1*
X2148825Y1840819D2*
X2156474Y1847518D1*
X2136378Y1861343D2*
Y1859442D1*
X2137329Y1857518D1*
X2140203Y1856568D1*
X2156474D1*
X2143077Y1853694D2*
Y1860392D1*
X1922301Y475629D2*
X1921328Y477553D1*
X1918476Y480427D1*
X1938550D1*
X1918476Y492350D2*
X1919427Y489476D1*
X1922301Y487553D1*
X1927076Y486602D1*
X1929950D1*
X1934725Y487553D1*
X1937600Y489476D1*
X1938550Y492350D1*
Y494252D1*
X1937599Y497126D1*
X1934725Y499027D1*
X1929950Y500000D1*
X1927076D1*
X1922301Y499027D1*
X1919427Y497126D1*
X1918476Y494252D1*
Y492350D1*
X1922301Y499027D2*
X1934725Y487553D1*
X1918476Y511923D2*
X1919427Y509049D1*
X1922301Y507126D1*
X1927076Y506175D1*
X1929950D1*
X1934725Y507126D1*
X1937599Y509049D1*
X1938550Y511923D1*
Y513825D1*
X1937599Y516699D1*
X1934725Y518600D1*
X1929950Y519573D1*
X1927076D1*
X1922301Y518600D1*
X1919427Y516699D1*
X1918476Y513825D1*
Y511923D1*
X1922301Y518600D2*
X1934725Y507126D1*
X1925153Y545189D2*
X1938550D1*
X1928977D2*
X1926103Y548063D1*
X1925153Y549986D1*
Y552838D1*
X1926103Y554761D1*
X1928977Y555712D1*
X1938550D1*
X1928977D2*
X1926103Y558586D1*
X1925153Y560509D1*
Y563361D1*
X1926103Y565285D1*
X1928977Y566258D1*
X1938550D1*
X1918454Y572433D2*
X1938550D1*
X1925153Y582006D2*
X1934725Y572433D1*
X1930901Y576258D2*
X1938550Y582957D1*
X1918454Y596782D2*
Y594880D1*
X1919405Y592957D1*
X1922279Y592006D1*
X1938550D1*
X1925153Y589132D2*
Y595831D1*
X1918454Y622398D2*
X1938550Y630047D1*
X1918454Y637696D1*
X1928027Y655368D2*
X1926103Y653445D1*
X1925153Y651521D1*
Y648669D1*
X1926103Y646746D1*
X1928027Y644845D1*
X1930901Y643872D1*
X1932802D1*
X1935676Y644845D1*
X1937577Y646746D1*
X1938550Y648669D1*
Y651521D1*
X1937577Y653445D1*
X1935676Y655368D1*
X1925153Y673018D2*
X1938550D1*
X1928027D2*
X1926103Y671116D1*
X1925153Y669193D1*
Y666341D1*
X1926103Y664418D1*
X1928027Y662516D1*
X1930901Y661544D1*
X1932802D1*
X1935676Y662516D1*
X1937577Y664418D1*
X1938550Y666341D1*
Y669193D1*
X1937577Y671116D1*
X1935676Y673018D1*
X1925153Y679193D2*
X1945249D1*
X1928027D2*
X1926126Y681117D1*
X1925153Y683018D1*
Y685892D1*
X1926126Y687815D1*
X1928027Y689717D1*
X1930901Y690689D1*
X1932824D1*
X1935676Y689717D1*
X1937599Y687815D1*
X1938550Y685892D1*
Y683018D1*
X1937599Y681117D1*
X1935676Y679193D1*
X1922301Y696865D2*
X1921328Y698788D1*
X1918476Y701663D1*
X1938550D1*
X1336521Y752899D2*
D69*
X1335084Y752424D1*
X1334123Y750987D1*
X1333647Y748599D1*
Y747162D1*
X1334123Y744774D1*
X1335084Y743337D1*
X1336521Y742862D1*
X1337472D1*
X1338909Y743337D1*
X1339860Y744774D1*
X1340346Y747162D1*
Y748599D1*
X1339860Y750987D1*
X1338909Y752424D1*
X1337472Y752899D1*
X1336521D1*
X1339860Y750987D2*
X1334123Y744774D1*
X1343909Y743824D2*
X1343434Y743337D1*
X1343909Y742862D1*
X1344395Y743337D1*
X1343909Y743824D1*
X1347483Y750987D2*
X1348445Y751473D1*
X1349882Y752899D1*
Y742862D1*
X1352970Y749561D2*
Y742862D1*
Y747648D2*
X1354407Y749085D1*
X1355369Y749561D1*
X1356795D1*
X1357756Y749085D1*
X1358232Y747648D1*
Y742862D1*
Y747648D2*
X1359669Y749085D1*
X1360630Y749561D1*
X1362056D1*
X1363018Y749085D1*
X1363504Y747648D1*
Y742862D1*
X1366592Y752910D2*
Y742862D1*
X1371378Y749561D2*
X1366592Y744774D1*
X1368504Y746687D2*
X1371854Y742862D1*
X1378766Y752910D2*
X1377816D1*
X1376854Y752435D1*
X1376379Y750998D1*
Y742862D1*
X1374942Y749561D2*
X1378291D1*
X1954699Y1059246D2*
D68*
X1956622Y1060219D1*
X1959496Y1063071D1*
Y1042997D1*
X1971420Y1063071D2*
X1968546Y1062120D1*
X1966623Y1059246D1*
X1965672Y1054471D1*
Y1051597D1*
X1966623Y1046822D1*
X1968546Y1043948D1*
X1971420Y1042997D1*
X1973321D1*
X1976195Y1043948D1*
X1978096Y1046822D1*
X1979069Y1051597D1*
Y1054471D1*
X1978096Y1059246D1*
X1976195Y1062120D1*
X1973321Y1063071D1*
X1971420D1*
X1978096Y1059246D2*
X1966623Y1046822D1*
X1985245Y1063093D2*
Y1042997D1*
X1994818Y1056394D2*
X1985245Y1046822D1*
X1989070Y1050646D2*
X1995768Y1042997D1*
X1956211Y939488D2*
X1958134Y940461D1*
X1961008Y943313D1*
Y923239D1*
X1972932Y943313D2*
X1970058Y942362D1*
X1968134Y939488D1*
X1967184Y934713D1*
Y931839D1*
X1968134Y927063D1*
X1970058Y924189D1*
X1972932Y923239D1*
X1974833D1*
X1977707Y924189D1*
X1979608Y927063D1*
X1980581Y931839D1*
Y934713D1*
X1979608Y939488D1*
X1977707Y942362D1*
X1974833Y943313D1*
X1972932D1*
X1979608Y939488D2*
X1968134Y927063D1*
X1986757Y943335D2*
Y923239D1*
X1996329Y936636D2*
X1986757Y927063D1*
X1990581Y930888D2*
X1997280Y923239D1*
X1415911Y648736D2*
D69*
X1416873Y649222D1*
X1418310Y650648D1*
Y640611D1*
X1424272Y650648D2*
X1422835Y650173D1*
X1421873Y648736D1*
X1421398Y646348D1*
Y644911D1*
X1421873Y642524D1*
X1422835Y641087D1*
X1424272Y640611D1*
X1425222D1*
X1426659Y641087D1*
X1427610Y642524D1*
X1428096Y644911D1*
Y646348D1*
X1427610Y648736D1*
X1426659Y650173D1*
X1425222Y650648D1*
X1424272D1*
X1427610Y648736D2*
X1421873Y642524D1*
X1431184Y647310D2*
Y640611D1*
Y645398D2*
X1432621Y646835D1*
X1433583Y647310D1*
X1435009D1*
X1435970Y646835D1*
X1436446Y645398D1*
Y640611D1*
Y645398D2*
X1437883Y646835D1*
X1438844Y647310D1*
X1440270D1*
X1441232Y646835D1*
X1441719Y645398D1*
Y640611D1*
X1444806Y650659D2*
Y640611D1*
X1449593Y647310D2*
X1444806Y642524D1*
X1446719Y644436D2*
X1450068Y640611D1*
X1456981Y650659D2*
X1456030D1*
X1455068Y650184D1*
X1454593Y648747D1*
Y640611D1*
X1453156Y647310D2*
X1456505D1*
X1518449Y661101D2*
X1528498Y664926D1*
X1518450Y668751D1*
X1523236Y677587D2*
X1522274Y676625D1*
X1521799Y675663D1*
Y674237D1*
X1522274Y673276D1*
X1523236Y672325D1*
X1524673Y671839D1*
X1525624D1*
X1527061Y672325D1*
X1528011Y673276D1*
X1528498Y674237D1*
Y675663D1*
X1528011Y676625D1*
X1527061Y677587D1*
X1521799Y686411D2*
X1528498D1*
X1523236D2*
X1522274Y685461D1*
X1521799Y684499D1*
Y683073D1*
X1522274Y682111D1*
X1523236Y681161D1*
X1524673Y680674D1*
X1525624D1*
X1527061Y681161D1*
X1528011Y682111D1*
X1528498Y683073D1*
Y684499D1*
X1528011Y685461D1*
X1527061Y686411D1*
X1521799Y689499D2*
X1531847D1*
X1523236D2*
X1522285Y690461D1*
X1521799Y691412D1*
Y692849D1*
X1522285Y693810D1*
X1523236Y694761D1*
X1524673Y695247D1*
X1525635D1*
X1527060Y694761D1*
X1528022Y693810D1*
X1528497Y692849D1*
Y691412D1*
X1528022Y690461D1*
X1527060Y689499D1*
X1528497Y703121D2*
X1518461D1*
X1525148Y698335D1*
Y705509D1*
X1308192Y643087D2*
D68*
Y651687D1*
X1307219Y654561D1*
X1306269Y655534D1*
X1304368Y656485D1*
X1302444D1*
X1300543Y655534D1*
X1299570Y654561D1*
X1298619Y651687D1*
Y643087D1*
X1318715D1*
X1308192Y649786D2*
X1318715Y656485D1*
X1311066Y662660D2*
Y674134D1*
X1309143D1*
X1307219Y673184D1*
X1306269Y672233D1*
X1305318Y670310D1*
Y667436D1*
X1306269Y665534D1*
X1308192Y663611D1*
X1311066Y662660D1*
X1312967D1*
X1315841Y663611D1*
X1317743Y665534D1*
X1318715Y667436D1*
Y670310D1*
X1317743Y672233D1*
X1315841Y674134D1*
X1298619Y687959D2*
Y686058D1*
X1299570Y684135D1*
X1302444Y683184D1*
X1318715D1*
X1305318Y680310D2*
Y687009D1*
X1322032Y694135D2*
Y712308D1*
X1298619Y718483D2*
X1299570Y719434D1*
X1298619Y720407D1*
X1297647Y719434D1*
X1298619Y718483D1*
X1305318Y719434D2*
X1318715D1*
X1305318Y726582D2*
X1318715D1*
X1309143D2*
X1306269Y729456D1*
X1305318Y731380D1*
Y734232D1*
X1306269Y736155D1*
X1309143Y737106D1*
X1318715D1*
X1298619Y746155D2*
X1314891D1*
X1317743Y747106D1*
X1318715Y749029D1*
Y750931D1*
X1305318Y743281D2*
Y749980D1*
X1647369Y731957D2*
D69*
X1657417Y735782D1*
X1647369Y739606D1*
X1652156Y748442D2*
X1651194Y747481D1*
X1650719Y746519D1*
Y745093D1*
X1651194Y744131D1*
X1652156Y743181D1*
X1653593Y742694D1*
X1654543D1*
X1655980Y743181D1*
X1656931Y744131D1*
X1657417Y745093D1*
Y746519D1*
X1656931Y747481D1*
X1655980Y748442D1*
X1650719Y757267D2*
X1657417D1*
X1652156D2*
X1651194Y756316D1*
X1650719Y755355D1*
Y753929D1*
X1651194Y752967D1*
X1652156Y752016D1*
X1653593Y751530D1*
X1654543D1*
X1655980Y752016D1*
X1656931Y752967D1*
X1657417Y753929D1*
Y755355D1*
X1656931Y756316D1*
X1655980Y757267D1*
X1650719Y760355D2*
X1660767D1*
X1652156D2*
X1651205Y761317D1*
X1650719Y762267D1*
Y763704D1*
X1651205Y764666D1*
X1652156Y765617D1*
X1653593Y766103D1*
X1654554D1*
X1655980Y765617D1*
X1656942Y764666D1*
X1657417Y763704D1*
Y762267D1*
X1656942Y761317D1*
X1655980Y760355D1*
X1649768Y769677D2*
X1649293D1*
X1648331Y770152D1*
X1647856Y770628D1*
X1647381Y771589D1*
Y773502D1*
X1647856Y774452D1*
X1648331Y774928D1*
X1649293Y775414D1*
X1650243D1*
X1651205Y774928D1*
X1652631Y773977D1*
X1657417Y769191D1*
Y775889D1*
X1666008Y737025D2*
X1665522Y737987D1*
X1664096Y739424D1*
X1674133D1*
X1667434Y742512D2*
X1674133D1*
X1669346D2*
X1667909Y743949D1*
X1667434Y744911D1*
Y746337D1*
X1667909Y747298D1*
X1669346Y747774D1*
X1674133Y747773D1*
X1669346Y747774D2*
X1667909Y749211D1*
X1667434Y750172D1*
Y751598D1*
X1667909Y752560D1*
X1669346Y753046D1*
X1674133D1*
X1664085Y756134D2*
X1674133D1*
X1667434Y760920D2*
X1672220Y756134D1*
X1670308Y758046D2*
X1674133Y761396D1*
X1664085Y768308D2*
Y767358D1*
X1664560Y766396D1*
X1665997Y765921D1*
X1674133D1*
X1667434Y764484D2*
Y767833D1*
X1900456Y1532440D2*
D68*
X1899483Y1534364D1*
X1896631Y1537238D1*
X1916705D1*
X1896631Y1549161D2*
X1897582Y1546287D1*
X1900456Y1544364D1*
X1905231Y1543413D1*
X1908105D1*
X1912880Y1544364D1*
X1915754Y1546287D1*
X1916705Y1549161D1*
Y1551063D1*
X1915754Y1553937D1*
X1912880Y1555838D1*
X1908105Y1556811D1*
X1905231D1*
X1900456Y1555838D1*
X1897582Y1553937D1*
X1896631Y1551063D1*
Y1549161D1*
X1900456Y1555838D2*
X1912880Y1544364D1*
X1896609Y1562986D2*
X1916705D1*
X1903308Y1572559D2*
X1912880Y1562986D1*
X1909056Y1566811D2*
X1916705Y1573510D1*
X1430648Y1595356D2*
X1438297Y1575260D1*
X1445946Y1595356D1*
X1463618Y1585783D2*
X1461695Y1587706D1*
X1459771Y1588657D1*
X1456919D1*
X1454996Y1587706D1*
X1453095Y1585783D1*
X1452122Y1582909D1*
Y1581008D1*
X1453095Y1578134D1*
X1454996Y1576232D1*
X1456919Y1575260D1*
X1459771D1*
X1461695Y1576232D1*
X1463618Y1578134D1*
X1481268Y1588657D2*
Y1575260D1*
Y1585783D2*
X1479366Y1587706D1*
X1477443Y1588657D1*
X1474591D1*
X1472668Y1587706D1*
X1470766Y1585783D1*
X1469794Y1582909D1*
Y1581008D1*
X1470766Y1578134D1*
X1472668Y1576232D1*
X1474591Y1575260D1*
X1477443D1*
X1479366Y1576232D1*
X1481268Y1578134D1*
X1487443Y1588657D2*
Y1568561D1*
Y1585783D2*
X1489367Y1587684D1*
X1491268Y1588657D1*
X1494142D1*
X1496065Y1587684D1*
X1497967Y1585783D1*
X1498939Y1582909D1*
Y1580986D1*
X1497967Y1578134D1*
X1496065Y1576210D1*
X1494142Y1575260D1*
X1491268D1*
X1489367Y1576210D1*
X1487443Y1578134D1*
X1507038Y1595334D2*
X1517540D1*
X1511814Y1587684D1*
X1514688D1*
X1516589Y1586734D1*
X1517540Y1585783D1*
X1518512Y1582909D1*
Y1581008D1*
X1517540Y1578134D1*
X1515638Y1576210D1*
X1512764Y1575260D1*
X1509890D1*
X1507038Y1576210D1*
X1506088Y1577183D1*
X1505115Y1579084D1*
X1482269Y1561494D2*
D69*
X1480832Y1561018D1*
X1479871Y1559581D1*
X1479395Y1557194D1*
Y1555757D1*
X1479871Y1553369D1*
X1480832Y1551932D1*
X1482269Y1551457D1*
X1483220D1*
X1484657Y1551932D1*
X1485608Y1553369D1*
X1486094Y1555757D1*
Y1557194D1*
X1485608Y1559581D1*
X1484657Y1561018D1*
X1483220Y1561494D1*
X1482269D1*
X1485608Y1559581D2*
X1479871Y1553369D1*
X1489657Y1552418D2*
X1489182Y1551932D1*
X1489657Y1551457D1*
X1490144Y1551932D1*
X1489657Y1552418D1*
X1493231Y1559581D2*
X1494193Y1560068D1*
X1495630Y1561494D1*
Y1551457D1*
X1498718Y1558155D2*
Y1551457D1*
Y1556243D2*
X1500155Y1557680D1*
X1501117Y1558155D1*
X1502543D1*
X1503504Y1557680D1*
X1503980Y1556243D1*
Y1551457D1*
Y1556243D2*
X1505417Y1557680D1*
X1506378Y1558155D1*
X1507804D1*
X1508766Y1557680D1*
X1509252Y1556243D1*
Y1551457D1*
X1512340Y1561505D2*
Y1551457D1*
X1517126Y1558155D2*
X1512340Y1553369D1*
X1514252Y1555281D2*
X1517602Y1551457D1*
X1524514Y1561505D2*
X1523564D1*
X1522602Y1561029D1*
X1522127Y1559592D1*
Y1551457D1*
X1520690Y1558155D2*
X1524039D1*
X1433821Y1559188D2*
X1434782Y1559674D1*
X1436219Y1561100D1*
Y1551063D1*
X1439307Y1557762D2*
Y1551063D1*
Y1555849D2*
X1440744Y1557286D1*
X1441706Y1557762D1*
X1443132D1*
X1444093Y1557286D1*
X1444569Y1555849D1*
Y1551063D1*
Y1555849D2*
X1446006Y1557286D1*
X1446967Y1557762D1*
X1448393D1*
X1449355Y1557286D1*
X1449841Y1555849D1*
Y1551063D1*
X1452929Y1561111D2*
Y1551063D1*
X1457716Y1557762D2*
X1452929Y1552975D1*
X1454842Y1554888D2*
X1458191Y1551063D1*
X1465103Y1561111D2*
X1464153D1*
X1463191Y1560636D1*
X1462716Y1559199D1*
Y1551063D1*
X1461279Y1557762D2*
X1464628D1*
X1336087Y1536206D2*
D68*
X1333213Y1535256D1*
X1331290Y1532382D1*
X1330339Y1527606D1*
Y1524732D1*
X1331290Y1519957D1*
X1333213Y1517083D1*
X1336087Y1516132D1*
X1337989D1*
X1340863Y1517083D1*
X1342764Y1519957D1*
X1343737Y1524732D1*
Y1527606D1*
X1342764Y1532382D1*
X1340863Y1535256D1*
X1337989Y1536206D1*
X1336087D1*
X1342764Y1532382D2*
X1331290Y1519957D1*
X1350863Y1518056D2*
X1349912Y1517083D1*
X1350863Y1516132D1*
X1351836Y1517083D1*
X1350863Y1518056D1*
X1358011Y1532382D2*
X1359935Y1533354D1*
X1362809Y1536206D1*
Y1516132D1*
X1368984Y1529530D2*
Y1516132D1*
Y1525705D2*
X1371858Y1528579D1*
X1373782Y1529530D1*
X1376634D1*
X1378557Y1528579D1*
X1379508Y1525705D1*
Y1516132D1*
Y1525705D2*
X1382382Y1528579D1*
X1384305Y1529530D1*
X1387157D1*
X1389080Y1528579D1*
X1390053Y1525705D1*
Y1516132D1*
X1396229Y1536228D2*
Y1516132D1*
X1405802Y1529530D2*
X1396229Y1519957D1*
X1400054Y1523782D2*
X1406752Y1516132D1*
X1420577Y1536228D2*
X1418676D1*
X1416753Y1535278D1*
X1415802Y1532404D1*
Y1516132D1*
X1412928Y1529530D2*
X1419627D1*
X1330005Y1556536D2*
X1331928Y1557509D1*
X1334802Y1560361D1*
Y1540287D1*
X1340978Y1553685D2*
Y1540287D1*
Y1549860D2*
X1343852Y1552734D1*
X1345775Y1553685D1*
X1348627D1*
X1350550Y1552734D1*
X1351501Y1549860D1*
Y1540287D1*
Y1549860D2*
X1354375Y1552734D1*
X1356298Y1553685D1*
X1359150D1*
X1361074Y1552734D1*
X1362046Y1549860D1*
Y1540287D1*
X1368222Y1560383D2*
Y1540287D1*
X1377795Y1553685D2*
X1368222Y1544112D1*
X1372047Y1547936D2*
X1378745Y1540287D1*
X1392570Y1560383D2*
X1390669D1*
X1388746Y1559433D1*
X1387795Y1556559D1*
Y1540287D1*
X1384921Y1553685D2*
X1391620D1*
X1484478Y1668881D2*
Y1648785D1*
X1477779Y1668881D2*
X1491176D1*
X1497352Y1658357D2*
X1505974D1*
X1508826Y1659308D1*
X1509799Y1660281D1*
X1510749Y1662182D1*
Y1665056D1*
X1509799Y1666957D1*
X1508826Y1667930D1*
X1505974Y1668881D1*
X1497352D1*
Y1648785D1*
X1516925Y1665034D2*
X1518848Y1666007D1*
X1521722Y1668858D1*
Y1648785D1*
X1646548Y1499083D2*
D69*
X1647509Y1499569D1*
X1648946Y1500995D1*
Y1490958D1*
X1652034Y1497657D2*
Y1490958D1*
Y1495744D2*
X1653471Y1497181D1*
X1654433Y1497657D1*
X1655859D1*
X1656820Y1497181D1*
X1657296Y1495744D1*
Y1490958D1*
Y1495744D2*
X1658733Y1497181D1*
X1659694Y1497657D1*
X1661120D1*
X1662082Y1497181D1*
X1662568Y1495744D1*
Y1490958D1*
X1665656Y1501006D2*
Y1490958D1*
X1670443Y1497657D2*
X1665656Y1492870D1*
X1667569Y1494783D2*
X1670918Y1490958D1*
X1677830Y1501006D2*
X1676880D1*
X1675918Y1500531D1*
X1675443Y1499094D1*
Y1490958D1*
X1674006Y1497657D2*
X1677355D1*
X1638772Y1408600D2*
X1637335Y1408125D1*
X1636373Y1406688D1*
X1635898Y1404300D1*
Y1402863D1*
X1636373Y1400475D1*
X1637335Y1399038D1*
X1638772Y1398563D1*
X1639723D1*
X1641160Y1399038D1*
X1642110Y1400475D1*
X1642597Y1402863D1*
Y1404300D1*
X1642110Y1406688D1*
X1641160Y1408125D1*
X1639723Y1408600D1*
X1638772D1*
X1642110Y1406688D2*
X1636373Y1400475D1*
X1646160Y1399525D2*
X1645684Y1399038D1*
X1646160Y1398563D1*
X1646646Y1399038D1*
X1646160Y1399525D1*
X1649734Y1406688D2*
X1650696Y1407174D1*
X1652133Y1408600D1*
Y1398563D1*
X1655221Y1405262D2*
Y1398563D1*
Y1403349D2*
X1656658Y1404786D1*
X1657619Y1405262D1*
X1659045D1*
X1660007Y1404786D1*
X1660482Y1403349D1*
Y1398563D1*
Y1403349D2*
X1661919Y1404786D1*
X1662881Y1405262D1*
X1664307D1*
X1665269Y1404786D1*
X1665755Y1403349D1*
Y1398563D1*
X1668843Y1408611D2*
Y1398563D1*
X1673629Y1405262D2*
X1668843Y1400475D1*
X1670755Y1402388D2*
X1674104Y1398563D1*
X1681017Y1408611D2*
X1680066D1*
X1679105Y1408136D1*
X1678629Y1406699D1*
Y1398563D1*
X1677192Y1405262D2*
X1680542D1*
X1793104Y1321311D2*
X1791667Y1320836D1*
X1790705Y1319399D1*
X1790230Y1317011D1*
Y1315574D1*
X1790705Y1313186D1*
X1791667Y1311749D1*
X1793104Y1311274D1*
X1794055D1*
X1795492Y1311749D1*
X1796442Y1313186D1*
X1796929Y1315574D1*
Y1317011D1*
X1796442Y1319399D1*
X1795492Y1320836D1*
X1794055Y1321311D1*
X1793104D1*
X1796442Y1319399D2*
X1790705Y1313186D1*
X1800492Y1312236D2*
X1800016Y1311749D1*
X1800492Y1311274D1*
X1800978Y1311749D1*
X1800492Y1312236D1*
X1804066Y1319399D2*
X1805028Y1319885D1*
X1806465Y1321311D1*
Y1311274D1*
X1809553Y1317973D2*
Y1311274D1*
Y1316061D2*
X1810990Y1317498D1*
X1811951Y1317973D1*
X1813377D1*
X1814339Y1317498D1*
X1814814Y1316061D1*
Y1311274D1*
Y1316061D2*
X1816251Y1317498D1*
X1817213Y1317973D1*
X1818639D1*
X1819601Y1317498D1*
X1820087Y1316061D1*
Y1311274D1*
X1823175Y1321322D2*
Y1311274D1*
X1827961Y1317973D2*
X1823175Y1313186D1*
X1825087Y1315099D2*
X1828436Y1311274D1*
X1835349Y1321322D2*
X1834398D1*
X1833437Y1320847D1*
X1832961Y1319410D1*
Y1311274D1*
X1831524Y1317973D2*
X1834874D1*
X1007286Y1651472D2*
D68*
Y1631376D1*
X1000587Y1651472D2*
X1013985D1*
X1020160Y1640949D2*
X1028782D1*
X1031634Y1641900D1*
X1032607Y1642872D1*
X1033558Y1644774D1*
Y1647648D1*
X1032607Y1649549D1*
X1031634Y1650522D1*
X1028782Y1651472D1*
X1020160D1*
Y1631376D1*
X1040706Y1646675D2*
Y1647626D1*
X1041657Y1649549D1*
X1042607Y1650500D1*
X1044531Y1651450D1*
X1048355D1*
X1050257Y1650500D1*
X1051207Y1649549D1*
X1052180Y1647626D1*
Y1645724D1*
X1051207Y1643801D1*
X1049306Y1640949D1*
X1039733Y1631376D1*
X1053131D1*
X1595901Y1767857D2*
Y1747761D1*
X1589203Y1767857D2*
X1602600D1*
X1608776Y1757334D2*
X1617398D1*
X1620250Y1758284D1*
X1621222Y1759257D1*
X1622173Y1761158D1*
Y1764032D1*
X1621222Y1765934D1*
X1620250Y1766906D1*
X1617398Y1767857D1*
X1608776D1*
Y1747761D1*
X1630272Y1767835D2*
X1640773D1*
X1635047Y1760186D1*
X1637921D1*
X1639823Y1759235D1*
X1640773Y1758284D1*
X1641746Y1755410D1*
Y1753509D1*
X1640773Y1750635D1*
X1638872Y1748712D1*
X1635998Y1747761D1*
X1633124D1*
X1630272Y1748712D1*
X1629322Y1749684D1*
X1628349Y1751586D1*
X1114466Y1573269D2*
X1116390Y1574241D1*
X1119264Y1577093D1*
Y1557019D1*
X1140738D2*
Y1577115D1*
X1133089Y1557019D1*
X1125440Y1577115D1*
Y1557019D1*
X1044481Y1572303D2*
X1046404Y1573276D1*
X1049278Y1576127D1*
Y1556054D1*
X1056405Y1557977D2*
X1055454Y1557004D1*
X1056405Y1556054D1*
X1057377Y1557004D1*
X1056405Y1557977D1*
X1075027Y1576127D2*
X1065476D1*
X1064526Y1567528D1*
X1065476Y1568478D1*
X1068351Y1569451D1*
X1071202D1*
X1074076Y1568478D1*
X1076000Y1566577D1*
X1076950Y1563703D1*
Y1561802D1*
X1076000Y1558928D1*
X1074076Y1557004D1*
X1071202Y1556054D1*
X1068351D1*
X1065476Y1557004D1*
X1064526Y1557977D1*
X1063553Y1559878D1*
X1083126Y1569451D2*
Y1556054D1*
Y1565626D2*
X1086000Y1568500D1*
X1087924Y1569451D1*
X1090775D1*
X1092699Y1568500D1*
X1093649Y1565626D1*
Y1556054D1*
X1107474Y1576150D2*
X1105573D1*
X1103650Y1575199D1*
X1102699Y1572325D1*
Y1556054D1*
X1099825Y1569451D2*
X1106524D1*
X1533868Y698062D2*
D69*
X1534829Y698548D1*
X1536266Y699974D1*
Y689937D1*
X1539354Y696636D2*
Y689937D1*
Y694723D2*
X1540791Y696160D1*
X1541753Y696636D1*
X1543179D1*
X1544141Y696160D1*
X1544616Y694723D1*
Y689937D1*
Y694723D2*
X1546053Y696160D1*
X1547015Y696636D1*
X1548441D1*
X1549402Y696160D1*
X1549889Y694723D1*
Y689937D1*
X1552977Y699985D2*
Y689937D1*
X1557763Y696636D2*
X1552977Y691849D1*
X1554889Y693762D2*
X1558238Y689937D1*
X1565151Y699985D2*
X1564200D1*
X1563238Y699510D1*
X1562763Y698073D1*
Y689937D1*
X1561326Y696636D2*
X1564675D1*
X2345178Y1120882D2*
D71*
X2392599D1*
X2408285Y1126111D1*
X2413635Y1131461D1*
X2418863Y1141918D1*
Y1157725D1*
X2413635Y1168182D1*
X2408285Y1173532D1*
X2392599Y1178760D1*
X2345178D1*
Y1068232D1*
X2452830Y1178760D2*
Y1068232D1*
X2555131Y1178760D2*
X2486796D1*
Y1068232D1*
X2555131D1*
X2486796Y1126111D2*
X2528867D1*
X2657433Y1178760D2*
X2589098D1*
Y1068232D1*
X2657433D1*
X2589098Y1126111D2*
X2631169D1*
X2770313Y1152496D2*
X2765084Y1162953D1*
X2754506Y1173532D1*
X2744049Y1178760D1*
X2723013D1*
X2712435Y1173532D1*
X2701978Y1162953D1*
X2696628Y1152496D1*
X2691399Y1136689D1*
Y1110304D1*
X2696628Y1094618D1*
X2701978Y1084040D1*
X2712435Y1073583D1*
X2723013Y1068232D1*
X2744049D1*
X2754506Y1073583D1*
X2765084Y1084040D1*
X2770313Y1094618D1*
Y1110304D1*
X2744049D1*
X1782685Y1238351D2*
D69*
Y1228303D1*
X1786035D1*
X1787472Y1228789D1*
X1788433Y1229740D1*
X1788909Y1230702D1*
X1789384Y1232128D1*
Y1234526D1*
X1788909Y1235963D1*
X1788433Y1236914D1*
X1787472Y1237876D1*
X1786035Y1238351D1*
X1782685D1*
X1792472Y1233565D2*
X1796772D1*
X1798209Y1234051D1*
X1798695Y1234526D1*
X1799171Y1235477D1*
Y1236439D1*
X1798695Y1237389D1*
X1798209Y1237876D1*
X1796772Y1238351D1*
X1792472D1*
Y1228303D1*
X1795821Y1233565D2*
X1799171Y1228303D1*
X1802258Y1238351D2*
Y1228303D1*
X1805608D1*
X1807045Y1228789D1*
X1808006Y1229740D1*
X1808482Y1230702D1*
X1808957Y1232128D1*
Y1234526D1*
X1808482Y1235963D1*
X1808006Y1236914D1*
X1807045Y1237876D1*
X1805608Y1238351D1*
X1802258D1*
X1812045D2*
X1815870Y1233565D1*
Y1228303D1*
X1819694Y1238351D2*
X1815870Y1233565D1*
X1842782Y1062319D2*
X1842307Y1063270D1*
X1841345Y1064231D1*
X1840394Y1064707D1*
X1838482D1*
X1837520Y1064231D1*
X1836570Y1063270D1*
X1836083Y1062319D1*
X1835608Y1060882D1*
Y1058483D1*
X1836083Y1057057D1*
X1836570Y1056096D1*
X1837520Y1055145D1*
X1838482Y1054659D1*
X1840394D1*
X1841345Y1055145D1*
X1842307Y1056096D1*
X1842782Y1057057D1*
X1852568Y1063270D2*
X1851618Y1064231D1*
X1850181Y1064707D1*
X1848268D1*
X1846831Y1064231D1*
X1845870Y1063270D1*
Y1062319D1*
X1846356Y1061357D1*
X1846831Y1060882D1*
X1847782Y1060407D1*
X1850656Y1059445D1*
X1851618Y1058970D1*
X1852093Y1058483D1*
X1852568Y1057533D1*
Y1056096D1*
X1851618Y1055145D1*
X1850181Y1054659D1*
X1848268D1*
X1846831Y1055145D1*
X1845870Y1056096D1*
X1855656Y1062783D2*
X1856618Y1063270D1*
X1858055Y1064696D1*
Y1054659D1*
X1785948Y1043589D2*
X1784998Y1044550D1*
X1783561Y1045026D1*
X1781648D1*
X1780211Y1044550D1*
X1779250Y1043589D1*
Y1042638D1*
X1779736Y1041676D1*
X1780211Y1041201D1*
X1781162Y1040726D1*
X1784036Y1039764D1*
X1784998Y1039289D1*
X1785473Y1038802D1*
X1785948Y1037852D1*
Y1036415D1*
X1784998Y1035464D1*
X1783561Y1034978D1*
X1781648D1*
X1780211Y1035464D1*
X1779250Y1036415D1*
X1792386Y1045026D2*
Y1034978D1*
X1789036Y1045026D2*
X1795735D1*
X1806483Y1034978D2*
X1802647Y1045026D1*
X1798823Y1034978D1*
X1800260Y1038327D2*
X1805046D1*
X1809571Y1040239D2*
X1813871D1*
X1815308Y1040726D1*
X1815794Y1041201D1*
X1816270Y1042152D1*
Y1043113D1*
X1815794Y1044064D1*
X1815308Y1044550D1*
X1813871Y1045026D1*
X1809571D1*
Y1034978D1*
X1812920Y1040239D2*
X1816270Y1034978D1*
X1822707Y1045026D2*
Y1034978D1*
X1819357Y1045026D2*
X1826056D1*
X1817038Y989180D2*
Y979132D1*
X1820388D1*
X1821825Y979619D1*
X1822786Y980569D1*
X1823262Y981531D1*
X1823737Y982957D1*
Y985356D1*
X1823262Y986793D1*
X1822786Y987743D1*
X1821825Y988705D1*
X1820388Y989180D1*
X1817038D1*
X1826825D2*
Y979132D1*
X1836611Y989180D2*
Y979132D1*
X1829913Y989180D1*
Y979132D1*
X980611Y1523492D2*
D68*
X971060D1*
X970110Y1514892D1*
X971060Y1515843D1*
X973934Y1516816D1*
X976786D1*
X979660Y1515843D1*
X981584Y1513942D1*
X982534Y1511068D1*
Y1509166D1*
X981584Y1506292D1*
X979660Y1504369D1*
X976786Y1503418D1*
X973934D1*
X971060Y1504369D1*
X970110Y1505342D1*
X969137Y1507243D1*
X988710Y1523514D2*
Y1503418D1*
X1002107Y1523514D2*
X988710Y1510117D1*
X993485Y1514914D2*
X1002107Y1503418D1*
X482094Y1203807D2*
D72*
X478690Y1210539D1*
X468708Y1220598D1*
X538967D1*
X503837Y1242213D2*
Y1280901D1*
X468708Y1319230D2*
X472035Y1309248D1*
X478690Y1305843D1*
X485422D1*
X492076Y1309248D1*
X495481Y1315902D1*
X498808Y1329289D1*
X502135Y1339348D1*
X508867Y1346002D1*
X515521Y1349329D1*
X525580D1*
X532235Y1346002D1*
X535639Y1342675D1*
X538967Y1332616D1*
Y1319230D1*
X535639Y1309248D1*
X532235Y1305843D1*
X525580Y1302516D1*
X515521D1*
X508867Y1305843D1*
X502135Y1312575D1*
X498808Y1322557D1*
X495481Y1335943D1*
X492076Y1342675D1*
X485422Y1346002D1*
X478690D1*
X472035Y1342675D1*
X468708Y1332616D1*
Y1319230D1*
X468631Y1482472D2*
Y1438986D1*
X538967D1*
Y1482472D1*
X502135Y1438986D2*
Y1465758D1*
X468631Y1504087D2*
X538967D1*
X512194Y1525702D2*
Y1565860D1*
X505462D1*
X498730Y1562533D1*
X495403Y1559206D1*
X492076Y1552474D1*
Y1542415D1*
X495403Y1535761D1*
X502135Y1529029D1*
X512194Y1525702D1*
X518849D1*
X528908Y1529029D1*
X535562Y1535761D1*
X538967Y1542415D1*
Y1552474D1*
X535562Y1559206D1*
X528908Y1565860D1*
X502135Y1627712D2*
X495403Y1620980D1*
X492076Y1614248D1*
Y1604266D1*
X495403Y1597534D1*
X502135Y1590880D1*
X512194Y1587475D1*
X518849D1*
X528908Y1590880D1*
X535562Y1597534D1*
X538967Y1604266D1*
Y1614248D1*
X535562Y1620980D1*
X528908Y1627712D1*
X1610205Y2334944D2*
D73*
X1614051Y2336890D1*
X1619799Y2342594D1*
Y2302446D1*
X1657044Y2329240D2*
X1655099Y2323492D1*
X1651296Y2319646D1*
X1645548Y2317744D1*
X1643647D1*
X1637899Y2319646D1*
X1634096Y2323492D1*
X1632151Y2329240D1*
Y2331142D1*
X1634096Y2336890D1*
X1637899Y2340692D1*
X1643647Y2342594D1*
X1645548D1*
X1651296Y2340692D1*
X1655099Y2336890D1*
X1657044Y2329240D1*
Y2319646D1*
X1655099Y2310095D1*
X1651296Y2304347D1*
X1645548Y2302446D1*
X1641746D1*
X1635998Y2304347D1*
X1634096Y2308194D1*
X1609140Y2261225D2*
D68*
Y2247828D1*
Y2257401D2*
X1612014Y2260275D1*
X1613937Y2261225D1*
X1616789D1*
X1618712Y2260275D1*
X1619663Y2257401D1*
Y2247828D1*
Y2257401D2*
X1622537Y2260275D1*
X1624460Y2261225D1*
X1627312D1*
X1629236Y2260275D1*
X1630208Y2257401D1*
Y2247828D1*
X1641159Y2261225D2*
X1639258Y2260275D1*
X1637335Y2258351D1*
X1636384Y2255477D1*
Y2253576D1*
X1637335Y2250702D1*
X1639258Y2248801D1*
X1641159Y2247828D1*
X1644033D1*
X1645957Y2248801D1*
X1647858Y2250702D1*
X1648831Y2253576D1*
Y2255477D1*
X1647858Y2258351D1*
X1645957Y2260275D1*
X1644033Y2261225D1*
X1641159D1*
X1665530Y2258351D2*
X1664579Y2260275D1*
X1661705Y2261225D1*
X1658831D1*
X1655957Y2260275D1*
X1655007Y2258351D1*
X1655957Y2256450D1*
X1657881Y2255477D1*
X1662656Y2254527D1*
X1664579Y2253576D1*
X1665530Y2251653D1*
Y2250702D1*
X1664579Y2248801D1*
X1661705Y2247828D1*
X1658831D1*
X1655957Y2248801D1*
X1655007Y2250702D1*
X1671706Y2267924D2*
X1672656Y2266973D1*
X1673629Y2267924D1*
X1672656Y2268897D1*
X1671706Y2267924D1*
X1672656Y2261225D2*
Y2247828D1*
X1708459Y2262337D2*
Y2248939D1*
Y2258512D2*
X1711333Y2261386D1*
X1713256Y2262337D1*
X1716108D1*
X1718031Y2261386D1*
X1718982Y2258512D1*
Y2248939D1*
Y2258512D2*
X1721856Y2261386D1*
X1723779Y2262337D1*
X1726631D1*
X1728555Y2261386D1*
X1729527Y2258512D1*
Y2248939D1*
X1735703Y2269035D2*
X1736654Y2268085D1*
X1737626Y2269035D1*
X1736654Y2270008D1*
X1735703Y2269035D1*
X1736654Y2262337D2*
Y2248939D1*
X1754325Y2259463D2*
X1753375Y2261386D1*
X1750501Y2262337D1*
X1747627D1*
X1744753Y2261386D1*
X1743802Y2259463D1*
X1744753Y2257561D1*
X1746676Y2256589D1*
X1751451Y2255638D1*
X1753375Y2254687D1*
X1754325Y2252764D1*
Y2251813D1*
X1753375Y2249912D1*
X1750501Y2248939D1*
X1747627D1*
X1744753Y2249912D1*
X1743802Y2251813D1*
X1765276Y2262337D2*
X1763375Y2261386D1*
X1761452Y2259463D1*
X1760501Y2256589D1*
Y2254687D1*
X1761452Y2251813D1*
X1763375Y2249912D1*
X1765276Y2248939D1*
X1768150D1*
X1770074Y2249912D1*
X1771975Y2251813D1*
X1772948Y2254687D1*
Y2256589D1*
X1771975Y2259463D1*
X1770074Y2261386D1*
X1768150Y2262337D1*
X1765276D1*
X1711167Y2330651D2*
D73*
Y2332552D1*
X1713068Y2336399D1*
X1714970Y2338300D1*
X1718816Y2340201D1*
X1726466D1*
X1730268Y2338300D1*
X1732170Y2336399D1*
X1734115Y2332552D1*
Y2328749D1*
X1732170Y2324903D1*
X1728367Y2319199D1*
X1709222Y2300053D1*
X1736016D1*
X1748368Y2332552D2*
X1752215Y2334497D1*
X1757963Y2340201D1*
Y2300053D1*
X1814142Y2258825D2*
D68*
X1813191Y2260748D1*
X1810317Y2261699D1*
X1807443D1*
X1804569Y2260748D1*
X1803619Y2258825D1*
X1804569Y2256924D1*
X1806493Y2255951D1*
X1811268Y2255000D1*
X1813191Y2254050D1*
X1814142Y2252126D1*
Y2251176D1*
X1813191Y2249274D1*
X1810317Y2248302D1*
X1807443D1*
X1804569Y2249274D1*
X1803619Y2251176D1*
X1831814Y2258825D2*
X1829890Y2260748D1*
X1827967Y2261699D1*
X1825115D1*
X1823192Y2260748D1*
X1821290Y2258825D1*
X1820318Y2255951D1*
Y2254050D1*
X1821290Y2251176D1*
X1823192Y2249274D1*
X1825115Y2248302D1*
X1827967D1*
X1829890Y2249274D1*
X1831814Y2251176D1*
X1837990Y2268398D2*
Y2248302D1*
X1844165Y2268398D2*
Y2248302D1*
X1853738Y2261699D2*
X1844165Y2252126D1*
X1847990Y2255951D2*
X1854689Y2248302D1*
X1803398Y2330746D2*
D73*
Y2332648D1*
X1805299Y2336494D1*
X1807201Y2338396D1*
X1811047Y2340297D1*
X1818697D1*
X1822499Y2338396D1*
X1824401Y2336494D1*
X1826346Y2332648D1*
Y2328845D1*
X1824401Y2324998D1*
X1820598Y2319295D1*
X1801453Y2300149D1*
X1828247D1*
X1844446Y2340297D2*
X1865448D1*
X1853996Y2324998D1*
X1859744D1*
X1863547Y2323097D1*
X1865448Y2321196D1*
X1867393Y2315448D1*
Y2311645D1*
X1865448Y2305897D1*
X1861645Y2302050D1*
X1855897Y2300149D1*
X1850149D1*
X1844446Y2302050D1*
X1842544Y2303996D1*
X1840599Y2307798D1*
X1809374Y2466003D2*
D68*
Y2466954D1*
X1810324Y2468877D1*
X1811275Y2469828D1*
X1813198Y2470778D1*
X1817023D1*
X1818924Y2469828D1*
X1819875Y2468877D1*
X1820848Y2466954D1*
Y2465052D1*
X1819875Y2463129D1*
X1817974Y2460277D1*
X1808401Y2450705D1*
X1821798D1*
X1837547D2*
Y2470778D1*
X1827974Y2457403D1*
X1842322D1*
X1866163Y2468346D2*
X1864262Y2470270D1*
X1861388Y2471220D1*
X1857563D1*
X1854689Y2470270D1*
X1852766Y2468346D1*
Y2466445D1*
X1853738Y2464522D1*
X1854689Y2463571D1*
X1856590Y2462621D1*
X1862338Y2460697D1*
X1864262Y2459747D1*
X1865212Y2458774D1*
X1866163Y2456872D1*
Y2453998D1*
X1864262Y2452097D1*
X1861388Y2451124D1*
X1857563D1*
X1854689Y2452097D1*
X1852766Y2453998D1*
X1872339Y2460697D2*
X1880961D1*
X1883813Y2461648D1*
X1884785Y2462621D1*
X1885736Y2464522D1*
Y2467396D1*
X1884785Y2469297D1*
X1883813Y2470270D1*
X1880961Y2471220D1*
X1872339D1*
Y2451124D1*
X1891912Y2471220D2*
Y2451124D1*
X1903836Y2471198D2*
X1900961Y2470248D1*
X1899038Y2467374D1*
X1898087Y2462598D1*
Y2459724D1*
X1899038Y2454949D1*
X1900961Y2452075D1*
X1903836Y2451124D1*
X1905737D1*
X1908611Y2452075D1*
X1910512Y2454949D1*
X1911485Y2459724D1*
Y2462598D1*
X1910512Y2467374D1*
X1908611Y2470248D1*
X1905737Y2471198D1*
X1903836D1*
X1910512Y2467374D2*
X1899038Y2454949D1*
X2495675Y2274913D2*
Y2254817D1*
X2502374D1*
X2505248Y2255790D1*
X2507171Y2257691D1*
X2508122Y2259615D1*
X2509072Y2262467D1*
Y2267264D1*
X2508122Y2270138D1*
X2507171Y2272039D1*
X2505248Y2273963D1*
X2502374Y2274913D1*
X2495675D1*
X2515248Y2265341D2*
X2523848D1*
X2526722Y2266313D1*
X2527695Y2267264D1*
X2528646Y2269165D1*
Y2271089D1*
X2527695Y2272990D1*
X2526722Y2273963D1*
X2523848Y2274913D1*
X2515248D1*
Y2254817D1*
X2521947Y2265341D2*
X2528646Y2254817D1*
X2534821Y2274913D2*
Y2254817D1*
X2541520D1*
X2544394Y2255790D1*
X2546317Y2257691D1*
X2547268Y2259615D1*
X2548219Y2262467D1*
Y2267264D1*
X2547268Y2270138D1*
X2546317Y2272039D1*
X2544394Y2273963D1*
X2541520Y2274913D1*
X2534821D1*
X2554394D2*
X2562044Y2265341D1*
Y2254817D1*
X2569693Y2274913D2*
X2562044Y2265341D1*
X2340320Y1036822D2*
D74*
Y986582D1*
Y1012890D2*
X2345129Y1017699D1*
X2349882Y1020075D1*
X2357067D1*
X2361820Y1017699D1*
X2366629Y1012890D1*
X2369005Y1005705D1*
Y1000952D1*
X2366629Y993767D1*
X2361820Y989014D1*
X2357067Y986582D1*
X2349882D1*
X2345129Y989014D1*
X2340320Y993767D1*
X2386876Y1020075D2*
X2401191Y986582D1*
X2396438Y977021D1*
X2391630Y972212D1*
X2386876Y969835D1*
X2384445D1*
X2415561Y1020075D2*
X2401191Y986582D1*
X2479602Y1036822D2*
Y986582D1*
X2495041Y1020075D2*
Y986582D1*
Y1005705D2*
X2497473Y1012890D1*
X2502226Y1017699D1*
X2507034Y1020075D1*
X2514219D1*
X2541597D2*
X2536844Y1017699D1*
X2532035Y1012890D1*
X2529659Y1005705D1*
Y1000952D1*
X2532035Y993767D1*
X2536844Y989014D1*
X2541597Y986582D1*
X2548782D1*
X2553590Y989014D1*
X2558343Y993767D1*
X2560775Y1000952D1*
Y1005705D1*
X2558343Y1012890D1*
X2553590Y1017699D1*
X2548782Y1020075D1*
X2541597D1*
X2576215D2*
Y986582D1*
Y1010514D2*
X2583400Y1017699D1*
X2588208Y1020075D1*
X2595338D1*
X2600146Y1017699D1*
X2602523Y1010514D1*
Y986582D1*
X2617962Y1036822D2*
Y986582D1*
X2639517D1*
X2646702Y989014D1*
X2649079Y991391D1*
X2651455Y996144D1*
Y1003329D1*
X2649079Y1008137D1*
X2646702Y1010514D1*
X2639517Y1012890D1*
X2646702Y1015322D1*
X2649079Y1017699D1*
X2651455Y1022452D1*
Y1027261D1*
X2649079Y1032014D1*
X2646702Y1034446D1*
X2639517Y1036822D1*
X2617962D1*
Y1012890D2*
X2639517D1*
X2702765Y1024884D2*
X2700388Y1029637D1*
X2695580Y1034446D1*
X2690826Y1036822D1*
X2681265D1*
X2676456Y1034446D1*
X2671703Y1029637D1*
X2669271Y1024884D1*
X2666895Y1017699D1*
Y1005705D1*
X2669271Y998576D1*
X2671703Y993767D1*
X2676456Y989014D1*
X2681265Y986582D1*
X2690826D1*
X2695580Y989014D1*
X2700388Y993767D1*
X2702765Y998576D1*
X2718204Y1036822D2*
Y986582D1*
X2337105Y884047D2*
D73*
X2339006Y882146D1*
X2340952Y884047D1*
X2339006Y885993D1*
X2337105Y884047D1*
X2339006Y870650D2*
Y843855D1*
X2353303Y870650D2*
Y843855D1*
Y859154D2*
X2355249Y864902D1*
X2359051Y868749D1*
X2362898Y870650D1*
X2368646D1*
X2390548D2*
X2386745Y868749D1*
X2382899Y864902D1*
X2380997Y859154D1*
Y855351D1*
X2382899Y849603D1*
X2386745Y845801D1*
X2390548Y843855D1*
X2396296D1*
X2400143Y845801D1*
X2403945Y849603D1*
X2405891Y855351D1*
Y859154D1*
X2403945Y864902D1*
X2400143Y868749D1*
X2396296Y870650D1*
X2390548D1*
X2418242D2*
Y843855D1*
Y863001D2*
X2423990Y868749D1*
X2427837Y870650D1*
X2433541D1*
X2437387Y868749D1*
X2439289Y863001D1*
Y843855D1*
X2451640Y884047D2*
Y843855D1*
Y864902D2*
X2455487Y868749D1*
X2459289Y870650D1*
X2465037D1*
X2468840Y868749D1*
X2472687Y864902D1*
X2474588Y859154D1*
Y855351D1*
X2472687Y849603D1*
X2468840Y845801D1*
X2465037Y843855D1*
X2459289D1*
X2455487Y845801D1*
X2451640Y849603D1*
X2509932Y864902D2*
X2506085Y868749D1*
X2502238Y870650D1*
X2496534D1*
X2492687Y868749D1*
X2488885Y864902D1*
X2486939Y859154D1*
Y855351D1*
X2488885Y849603D1*
X2492687Y845801D1*
X2496534Y843855D1*
X2502238D1*
X2506085Y845801D1*
X2509932Y849603D1*
X2522283Y884047D2*
X2524184Y882146D1*
X2526130Y884047D1*
X2524184Y885993D1*
X2522283Y884047D1*
X2524184Y870650D2*
Y843855D1*
X2540382Y847702D2*
X2538481Y845756D1*
X2540382Y843855D1*
X2542328Y845756D1*
X2540382Y847702D1*
X2577671Y864902D2*
X2573825Y868749D1*
X2569978Y870650D1*
X2564274D1*
X2560427Y868749D1*
X2556625Y864902D1*
X2554679Y859154D1*
Y855351D1*
X2556625Y849603D1*
X2560427Y845801D1*
X2564274Y843855D1*
X2569978D1*
X2573825Y845801D1*
X2577671Y849603D1*
X2599573Y870650D2*
X2595771Y868749D1*
X2591924Y864902D1*
X2590023Y859154D1*
Y855351D1*
X2591924Y849603D1*
X2595771Y845801D1*
X2599573Y843855D1*
X2605321D1*
X2609168Y845801D1*
X2612971Y849603D1*
X2614916Y855351D1*
Y859154D1*
X2612971Y864902D1*
X2609168Y868749D1*
X2605321Y870650D1*
X2599573D1*
X2627268D2*
Y843855D1*
Y863001D2*
X2633016Y868749D1*
X2636862Y870650D1*
X2642566D1*
X2646413Y868749D1*
X2648314Y863001D1*
Y843855D1*
Y863001D2*
X2654062Y868749D1*
X2657909Y870650D1*
X2663613D1*
X2667460Y868749D1*
X2669405Y863001D1*
Y843855D1*
X2340789Y959308D2*
D74*
Y909068D1*
Y935376D2*
X2345597Y940184D1*
X2350351Y942561D1*
X2357536D1*
X2362289Y940184D1*
X2367097Y935376D1*
X2369474Y928191D1*
Y923438D1*
X2367097Y916253D1*
X2362289Y911500D1*
X2357536Y909068D1*
X2350351D1*
X2345597Y911500D1*
X2340789Y916253D1*
X2384913Y928191D2*
X2413598D1*
Y932999D1*
X2411221Y937808D1*
X2408845Y940184D1*
X2404036Y942561D1*
X2396851D1*
X2392098Y940184D1*
X2387290Y935376D1*
X2384913Y928191D1*
Y923438D1*
X2387290Y916253D1*
X2392098Y911500D1*
X2396851Y909068D1*
X2404036D1*
X2408845Y911500D1*
X2413598Y916253D1*
X2436222Y959308D2*
Y918629D1*
X2438599Y911500D1*
X2443407Y909068D1*
X2448160D1*
X2429037Y942561D2*
X2445784D1*
X2492285D2*
Y909068D1*
Y935376D2*
X2487531Y940184D1*
X2482723Y942561D1*
X2475593D1*
X2470785Y940184D1*
X2466032Y935376D1*
X2463600Y928191D1*
Y923438D1*
X2466032Y916253D1*
X2470785Y911500D1*
X2475593Y909068D1*
X2482723D1*
X2487531Y911500D1*
X2492285Y916253D1*
X2556325Y942561D2*
X2570695Y909068D1*
X2585010Y942561D1*
X2600449Y928191D2*
X2629134D1*
Y932999D1*
X2626757Y937808D1*
X2624381Y940184D1*
X2619572Y942561D1*
X2612387D1*
X2607634Y940184D1*
X2602826Y935376D1*
X2600449Y928191D1*
Y923438D1*
X2602826Y916253D1*
X2607634Y911500D1*
X2612387Y909068D1*
X2619572D1*
X2624381Y911500D1*
X2629134Y916253D1*
X2644573Y942561D2*
Y909068D1*
Y928191D2*
X2647005Y935376D1*
X2651758Y940184D1*
X2656567Y942561D1*
X2663752D1*
X2705499Y935376D2*
X2703123Y940184D1*
X2695938Y942561D1*
X2688752D1*
X2681567Y940184D1*
X2679191Y935376D1*
X2681567Y930623D1*
X2686376Y928191D1*
X2698314Y925814D1*
X2703123Y923438D1*
X2705499Y918629D1*
Y916253D1*
X2703123Y911500D1*
X2695938Y909068D1*
X2688752D1*
X2681567Y911500D1*
X2679191Y916253D1*
X2720938Y959308D2*
X2723315Y956931D1*
X2725747Y959308D1*
X2723315Y961740D1*
X2720938Y959308D1*
X2723315Y942561D2*
Y909068D1*
X2753124Y942561D2*
X2748371Y940184D1*
X2743563Y935376D1*
X2741186Y928191D1*
Y923438D1*
X2743563Y916253D1*
X2748371Y911500D1*
X2753124Y909068D1*
X2760309D1*
X2765118Y911500D1*
X2769871Y916253D1*
X2772303Y923438D1*
Y928191D1*
X2769871Y935376D1*
X2765118Y940184D1*
X2760309Y942561D1*
X2753124D1*
X2787742D2*
Y909068D1*
Y932999D2*
X2794927Y940184D1*
X2799736Y942561D1*
X2806865D1*
X2811674Y940184D1*
X2814050Y932999D1*
Y909068D1*
X1709293Y2238608D2*
D68*
Y2218512D1*
X1715992D1*
X1718866Y2219484D1*
X1720789Y2221386D1*
X1721740Y2223309D1*
X1722691Y2226161D1*
Y2230958D1*
X1721740Y2233832D1*
X1720789Y2235734D1*
X1718866Y2237657D1*
X1715992Y2238608D1*
X1709293D1*
X1733642Y2231909D2*
X1731740Y2230958D1*
X1729817Y2229035D1*
X1728866Y2226161D1*
Y2224260D1*
X1729817Y2221386D1*
X1731740Y2219484D1*
X1733642Y2218512D1*
X1736516D1*
X1738439Y2219484D1*
X1740340Y2221386D1*
X1741313Y2224260D1*
Y2226161D1*
X1740340Y2229035D1*
X1738439Y2230958D1*
X1736516Y2231909D1*
X1733642D1*
X1747489D2*
Y2222336D1*
X1748439Y2219484D1*
X1750363Y2218512D1*
X1753237D1*
X1755138Y2219484D1*
X1758012Y2222336D1*
Y2231909D2*
Y2218512D1*
X1767062Y2238608D2*
Y2222336D1*
X1768012Y2219484D1*
X1769936Y2218512D1*
X1771837D1*
X1764188Y2231909D2*
X1770886D1*
X720006Y2333692D2*
D73*
X723853Y2335638D1*
X729601Y2341342D1*
Y2301194D1*
X821725Y2341447D2*
X842727D1*
X831275Y2326148D1*
X837023D1*
X840826Y2324247D1*
X842727Y2322345D1*
X844673Y2316597D1*
Y2312795D1*
X842727Y2307047D1*
X838925Y2303200D1*
X833176Y2301299D1*
X827428D1*
X821725Y2303200D1*
X819823Y2305146D1*
X817878Y2308948D1*
X947664Y2341318D2*
X928563D1*
X926662Y2324118D1*
X928563Y2326019D1*
X934311Y2327965D1*
X940015D1*
X945763Y2326019D1*
X949610Y2322217D1*
X951511Y2316469D1*
Y2312666D1*
X949610Y2306918D1*
X945763Y2303071D1*
X940015Y2301170D1*
X934311D1*
X928563Y2303071D1*
X926662Y2305017D1*
X924716Y2308819D1*
X1028678Y2301106D2*
X1047823Y2341254D1*
X1021029D1*
X1147816Y2328042D2*
X1145870Y2322294D1*
X1142068Y2318447D1*
X1136320Y2316546D1*
X1134419D1*
X1128671Y2318447D1*
X1124868Y2322294D1*
X1122922Y2328042D1*
Y2329944D1*
X1124868Y2335692D1*
X1128671Y2339494D1*
X1134419Y2341395D1*
X1136320D1*
X1142068Y2339494D1*
X1145870Y2335692D1*
X1147816Y2328042D1*
Y2318447D1*
X1145870Y2308897D1*
X1142068Y2303149D1*
X1136320Y2301248D1*
X1132517D1*
X1126769Y2303149D1*
X1124868Y2306996D1*
X1217917Y2333747D2*
X1221764Y2335693D1*
X1227512Y2341397D1*
Y2301249D1*
X1239863Y2333747D2*
X1243710Y2335693D1*
X1249458Y2341397D1*
Y2301249D1*
X1305961Y2332603D2*
X1309807Y2334549D1*
X1315555Y2340252D1*
Y2300105D1*
X1331754Y2340252D2*
X1352756D1*
X1341304Y2324954D1*
X1347052D1*
X1350855Y2323052D1*
X1352756Y2321151D1*
X1354701Y2315403D1*
Y2311601D1*
X1352756Y2305853D1*
X1348953Y2302006D1*
X1343205Y2300105D1*
X1337457D1*
X1331754Y2302006D1*
X1329852Y2303951D1*
X1327907Y2307754D1*
X1411329Y2333278D2*
X1415176Y2335223D1*
X1420924Y2340927D1*
Y2300779D1*
X1456223Y2340927D2*
X1437122D1*
X1435221Y2323727D1*
X1437122Y2325628D1*
X1442870Y2327574D1*
X1448574D1*
X1454322Y2325628D1*
X1458169Y2321826D1*
X1460070Y2316078D1*
Y2312275D1*
X1458169Y2306527D1*
X1454322Y2302680D1*
X1448574Y2300779D1*
X1442870D1*
X1437122Y2302680D1*
X1435221Y2304626D1*
X1433276Y2308428D1*
X1510933Y2332186D2*
X1514780Y2334131D1*
X1520528Y2339835D1*
Y2299687D1*
X1540528D2*
X1559674Y2339835D1*
X1532879D1*
X1908924Y2331085D2*
Y2332986D1*
X1910826Y2336833D1*
X1912727Y2338734D1*
X1916574Y2340636D1*
X1924223D1*
X1928026Y2338734D1*
X1929927Y2336833D1*
X1931872Y2332986D1*
Y2329184D1*
X1929927Y2325337D1*
X1926124Y2319633D1*
X1906979Y2300488D1*
X1933774D1*
X1969073Y2340636D2*
X1949972D1*
X1948070Y2323436D1*
X1949972Y2325337D1*
X1955720Y2327282D1*
X1961424D1*
X1967172Y2325337D1*
X1971018Y2321534D1*
X1972920Y2315786D1*
Y2311984D1*
X1971018Y2306236D1*
X1967172Y2302389D1*
X1961424Y2300488D1*
X1955720D1*
X1949972Y2302389D1*
X1948070Y2304335D1*
X1946125Y2308137D1*
X2008140Y2330019D2*
Y2331921D1*
X2010041Y2335767D1*
X2011942Y2337669D1*
X2015789Y2339570D1*
X2023438D1*
X2027241Y2337669D1*
X2029142Y2335767D1*
X2031088Y2331921D1*
Y2328118D1*
X2029142Y2324271D1*
X2025340Y2318568D1*
X2006194Y2299422D1*
X2032989D1*
X2052990D2*
X2072135Y2339570D1*
X2045340D1*
X2109789Y2331413D2*
Y2333314D1*
X2111691Y2337161D1*
X2113592Y2339062D1*
X2117439Y2340964D1*
X2125088D1*
X2128890Y2339062D1*
X2130792Y2337161D1*
X2132737Y2333314D1*
Y2329512D1*
X2130792Y2325665D1*
X2126989Y2319961D1*
X2107844Y2300816D1*
X2134638D1*
X2171883Y2327611D2*
X2169938Y2321862D1*
X2166135Y2318016D1*
X2160387Y2316114D1*
X2158486D1*
X2152738Y2318016D1*
X2148935Y2321862D1*
X2146990Y2327611D1*
Y2329512D1*
X2148935Y2335260D1*
X2152738Y2339062D1*
X2158486Y2340964D1*
X2160387D1*
X2166135Y2339062D1*
X2169938Y2335260D1*
X2171883Y2327611D1*
Y2318016D1*
X2169938Y2308465D1*
X2166135Y2302717D1*
X2160387Y2300816D1*
X2156585D1*
X2150837Y2302717D1*
X2148935Y2306564D1*
X2219414Y2339920D2*
X2240416D1*
X2228964Y2324622D1*
X2234712D1*
X2238515Y2322720D1*
X2240416Y2320819D1*
X2242362Y2315071D1*
Y2311269D1*
X2240416Y2305521D1*
X2236613Y2301674D1*
X2230865Y2299773D1*
X2225117D1*
X2219414Y2301674D1*
X2217512Y2303619D1*
X2215567Y2307422D1*
X2254713Y2332271D2*
X2258560Y2334217D1*
X2264308Y2339920D1*
Y2299773D1*
X2310776Y2340524D2*
X2331778D1*
X2320326Y2325225D1*
X2326074D1*
X2329877Y2323324D1*
X2331778Y2321423D1*
X2333724Y2315675D1*
Y2311872D1*
X2331778Y2306124D1*
X2327976Y2302277D1*
X2322228Y2300376D1*
X2316480D1*
X2310776Y2302277D1*
X2308875Y2304223D1*
X2306929Y2308026D1*
X2349922Y2340524D2*
X2370924D1*
X2359472Y2325225D1*
X2365220D1*
X2369023Y2323324D1*
X2370924Y2321423D1*
X2372870Y2315675D1*
Y2311872D1*
X2370924Y2306124D1*
X2367122Y2302277D1*
X2361374Y2300376D1*
X2355626D1*
X2349922Y2302277D1*
X2348021Y2304223D1*
X2346075Y2308026D1*
X2411061Y2340906D2*
X2432063D1*
X2420611Y2325607D1*
X2426359D1*
X2430162Y2323706D1*
X2432063Y2321805D1*
X2434009Y2316057D1*
Y2312254D1*
X2432063Y2306506D1*
X2428260Y2302659D1*
X2422512Y2300758D1*
X2416764D1*
X2411061Y2302659D1*
X2409159Y2304605D1*
X2407214Y2308407D1*
X2469308Y2340906D2*
X2450207D1*
X2448305Y2323706D1*
X2450207Y2325607D1*
X2455955Y2327553D1*
X2461659D1*
X2467407Y2325607D1*
X2471253Y2321805D1*
X2473155Y2316057D1*
Y2312254D1*
X2471253Y2306506D1*
X2467407Y2302659D1*
X2461659Y2300758D1*
X2455955D1*
X2450207Y2302659D1*
X2448305Y2304605D1*
X2446360Y2308407D1*
X2506599Y2341171D2*
X2527601D1*
X2516149Y2325872D1*
X2521897D1*
X2525700Y2323971D1*
X2527601Y2322070D1*
X2529547Y2316322D1*
Y2312519D1*
X2527601Y2306771D1*
X2523799Y2302924D1*
X2518050Y2301023D1*
X2512302D1*
X2506599Y2302924D1*
X2504697Y2304870D1*
X2502752Y2308672D1*
X2549547Y2301023D2*
X2568693Y2341171D1*
X2541898D1*
X2608508Y2340028D2*
X2629511D1*
X2618059Y2324729D1*
X2623807D1*
X2627609Y2322828D1*
X2629511Y2320927D1*
X2631456Y2315179D1*
Y2311376D1*
X2629511Y2305628D1*
X2625708Y2301781D1*
X2619960Y2299880D1*
X2614212D1*
X2608508Y2301781D1*
X2606607Y2303727D1*
X2604661Y2307529D1*
X2668701Y2326675D2*
X2666755Y2320927D1*
X2662953Y2317080D1*
X2657205Y2315179D1*
X2655303D1*
X2649555Y2317080D1*
X2645753Y2320927D1*
X2643807Y2326675D1*
Y2328576D1*
X2645753Y2334324D1*
X2649555Y2338127D1*
X2655303Y2340028D1*
X2657205D1*
X2662953Y2338127D1*
X2666755Y2334324D1*
X2668701Y2326675D1*
Y2317080D1*
X2666755Y2307529D1*
X2662953Y2301781D1*
X2657205Y2299880D1*
X2653402D1*
X2647654Y2301781D1*
X2645753Y2305628D1*
X591655Y2114098D2*
X608899D1*
X614603Y2115999D1*
X616548Y2117944D1*
X618449Y2121747D1*
Y2127495D1*
X616548Y2131298D1*
X614603Y2133243D1*
X608899Y2135144D1*
X591655D1*
Y2094952D1*
X640351Y2121747D2*
X636549Y2119846D1*
X632702Y2115999D1*
X630801Y2110251D1*
Y2106448D1*
X632702Y2100700D1*
X636549Y2096898D1*
X640351Y2094952D1*
X646099D1*
X649946Y2096898D1*
X653749Y2100700D1*
X655694Y2106448D1*
Y2110251D1*
X653749Y2115999D1*
X649946Y2119846D1*
X646099Y2121747D1*
X640351D1*
X668046D2*
X675695Y2094952D1*
X683344Y2121747D1*
X690994Y2094952D1*
X698643Y2121747D1*
X710994Y2110251D2*
X733942D1*
Y2114098D1*
X732041Y2117944D1*
X730140Y2119846D1*
X726293Y2121747D1*
X720545D1*
X716742Y2119846D1*
X712896Y2115999D1*
X710994Y2110251D1*
Y2106448D1*
X712896Y2100700D1*
X716742Y2096898D1*
X720545Y2094952D1*
X726293D1*
X730140Y2096898D1*
X733942Y2100700D1*
X746294Y2121747D2*
Y2094952D1*
Y2110251D2*
X748239Y2115999D1*
X752042Y2119846D1*
X755888Y2121747D1*
X761636D1*
X759154Y1939452D2*
D70*
X757728Y1937993D1*
X759154Y1936567D1*
X760613Y1937993D1*
X759154Y1939452D1*
M02*
